<?xml version="1.0" encoding="utf-8"?><svg width="888" height="812" viewBox="0 0 888 812" xmlns="http://www.w3.org/2000/svg" xmlns:xlink="http://www.w3.org/1999/xlink"><svg id="collage" viewBox="-5 -5 70 70" width="70" height="70" xmlns="http://www.w3.org/2000/svg"><style>.ast0{fill:none}.ast1{fill:#d0e8f4}.ast2{fill:#999}</style><path class="ast0" d="M19.3 20.7l.1-7.3-5.5-1.8v14.2c1-1.3 2.2-2.4 3.5-3.5.2-.3.3-.5.6-.7.4-.4.8-.7 1.3-.9zM30.2 14.1l12.3-4-12.4-2.7h-.3l-12.4 2.7 12.3 4c.2.1.4.1.5 0z"/><path class="ast1" d="M22 38.7v-2.5c-1.3-1.9-2.1-4-2.4-6.2a7.41 7.41 0 0 1-2.7-5.7c0-.7.2-1.4.6-1.9-1.3 1-2.5 2.2-3.5 3.5v2.3c0 .7-.6 1.3-1.3 1.3-.3 0-.6-.1-.9-.3-1.5 2.8-2.3 6.1-2.3 9.5 0 2.1.3 4.1.9 5.9.3-.2.7-.4 1.1-.6L22 38.7zM40.5 29.9c-.3 2.3-1.2 4.5-2.5 6.4v2.4l10.6 5.2c.4.2.7.4 1.1.6.6-1.9.9-3.9.9-5.9 0-6.7-3.2-12.6-8.1-16.4.4.6.7 1.3.7 2.1-.1 2.1-1.1 4.2-2.7 5.6z"/><path class="ast2" d="M49.7 44.5c-.3-.2-.7-.4-1.1-.6L38 38.7v-2.4c1.4-1.9 2.2-4.1 2.5-6.4 1.6-1.4 2.6-3.5 2.6-5.6 0-.8-.2-1.5-.7-2.1-.1-.2-.3-.4-.4-.5-.4-.4-.8-.7-1.3-.9v-7.4l7.1-2.3c.7-.2 1-.9.8-1.6-.1-.4-.5-.8-.9-.9l-17-3.7c-.5-.1-.9-.1-1.4 0l-17 3.7c-.7.1-1.1.8-1 1.5V28.2c0 .4.2.7.4 1 .2.2.5.3.9.3.7 0 1.3-.6 1.3-1.3V11.6l5.5 1.8-.1 7.3c-.5.2-1 .5-1.4.8-.2.2-.4.5-.6.7-.4.6-.6 1.2-.6 1.9 0 2.2 1 4.3 2.7 5.7.3 2.2 1.1 4.4 2.4 6.2v2.5l-10.6 5.2c-.4.2-.7.4-1.1.6C7.7 46.1 6 49 6 52.2v1.7c0 .7.6 1.3 1.3 1.3h45.4c.7 0 1.3-.6 1.3-1.3v-1.7c0-3.2-1.7-6.1-4.3-7.7zM17.5 10.1l12.4-2.7h.3l12.4 2.7-12.3 4h-.4l-12.4-4zm20.6 4.1v3.6c-.7.4-1.4.8-2.1 1.1-3.9 1.7-8.2 1.7-12.1 0-.7-.3-1.4-.6-2-1.1v-3.6l7.1 2.3c.7.2 1.4.2 2 0l7.1-2.3zm-16.6 14c-1.3-.9-2.1-2.4-2.1-3.9 0-.3.1-.6.3-.8.2-.2.5-.3.8-.3.7 0 1.3-.5 1.3-1.2v-1.1c2.5 1.3 5.3 1.9 8.1 2 2.8 0 5.6-.7 8.1-2V22c0 .7.6 1.3 1.3 1.3.3 0 .6.1.8.3.2.2.3.5.3.8 0 1.5-.7 3-2 3.9-.3.2-.5.5-.5.9-.2 2.1-1 4.1-2.2 5.8-.3.4-.4.8-.4 1.3v2.9c-2.3 3-6.7 3.6-9.7 1.2-.4-.3-.9-.8-1.2-1.2v-3c0-.5-.2-.9-.4-1.3-1.2-1.7-1.9-3.6-2.1-5.7.1-.4-.1-.8-.4-1zm29.9 24.4H8.6v-.4c0-2.1 1-4 2.7-5.2.4-.3.8-.5 1.2-.7h.1L23 41.2c1.8 2 4.4 3.2 7.1 3.2H30c2.7 0 5.3-1.2 7.1-3.2l10.4 5.1h.1c.4.2.8.4 1.2.7 1.6 1.2 2.7 3.1 2.7 5.2l-.1.4z"/></svg><svg id="collage_dark" viewBox="-5 -5 70 70" width="70" height="70" x="70" y="70" xmlns="http://www.w3.org/2000/svg"><style>.bst0{fill:none}.bst1{fill:#7aabc5}.bst2{fill:#666}</style><path class="bst0" d="M19.3 20.7l.1-7.3-5.5-1.8v14.2c1-1.3 2.2-2.4 3.5-3.5.2-.3.3-.5.6-.7.4-.4.8-.7 1.3-.9zM30.2 14.1l12.3-4-12.4-2.7h-.3l-12.4 2.7 12.3 4c.2.1.4.1.5 0z"/><path class="bst1" d="M22 38.7v-2.5c-1.3-1.9-2.1-4-2.4-6.2a7.41 7.41 0 0 1-2.7-5.7c0-.7.2-1.4.6-1.9-1.3 1-2.5 2.2-3.5 3.5v2.3c0 .7-.6 1.3-1.3 1.3-.3 0-.6-.1-.9-.3-1.5 2.8-2.3 6.1-2.3 9.5 0 2.1.3 4.1.9 5.9.3-.2.7-.4 1.1-.6L22 38.7zM40.5 29.9c-.3 2.3-1.2 4.5-2.5 6.4v2.4l10.6 5.2c.4.2.7.4 1.1.6.6-1.9.9-3.9.9-5.9 0-6.7-3.2-12.6-8.1-16.4.4.6.7 1.3.7 2.1-.1 2.1-1.1 4.2-2.7 5.6z"/><path class="bst2" d="M49.7 44.5c-.3-.2-.7-.4-1.1-.6L38 38.7v-2.4c1.4-1.9 2.2-4.1 2.5-6.4 1.6-1.4 2.6-3.5 2.6-5.6 0-.8-.2-1.5-.7-2.1-.1-.2-.3-.4-.4-.5-.4-.4-.8-.7-1.3-.9v-7.4l7.1-2.3c.7-.2 1-.9.8-1.6-.1-.4-.5-.8-.9-.9l-17-3.7c-.5-.1-.9-.1-1.4 0l-17 3.7c-.7.1-1.1.8-1 1.5V28.2c0 .4.2.7.4 1 .2.2.5.3.9.3.7 0 1.3-.6 1.3-1.3V11.6l5.5 1.8-.1 7.3c-.5.2-1 .5-1.4.8-.2.2-.4.5-.6.7-.4.6-.6 1.2-.6 1.9 0 2.2 1 4.3 2.7 5.7.3 2.2 1.1 4.4 2.4 6.2v2.5l-10.6 5.2c-.4.2-.7.4-1.1.6C7.7 46.1 6 49 6 52.2v1.7c0 .7.6 1.3 1.3 1.3h45.4c.7 0 1.3-.6 1.3-1.3v-1.7c0-3.2-1.7-6.1-4.3-7.7zM17.5 10.1l12.4-2.7h.3l12.4 2.7-12.3 4h-.4l-12.4-4zm20.6 4.1v3.6c-.7.4-1.4.8-2.1 1.1-3.9 1.7-8.2 1.7-12.1 0-.7-.3-1.4-.6-2-1.1v-3.6l7.1 2.3c.7.2 1.4.2 2 0l7.1-2.3zm-16.6 14c-1.3-.9-2.1-2.4-2.1-3.9 0-.3.1-.6.3-.8.2-.2.5-.3.8-.3.7 0 1.3-.5 1.3-1.2v-1.1c2.5 1.3 5.3 1.9 8.1 2 2.8 0 5.6-.7 8.1-2V22c0 .7.6 1.3 1.3 1.3.3 0 .6.1.8.3.2.2.3.5.3.8 0 1.5-.7 3-2 3.9-.3.2-.5.5-.5.9-.2 2.1-1 4.1-2.2 5.8-.3.4-.4.8-.4 1.3v2.9c-2.3 3-6.7 3.6-9.7 1.2-.4-.3-.9-.8-1.2-1.2v-3c0-.5-.2-.9-.4-1.3-1.2-1.7-1.9-3.6-2.1-5.7.1-.4-.1-.8-.4-1zm29.9 24.4H8.6v-.4c0-2.1 1-4 2.7-5.2.4-.3.8-.5 1.2-.7h.1L23 41.2c1.8 2 4.4 3.2 7.1 3.2H30c2.7 0 5.3-1.2 7.1-3.2l10.4 5.1h.1c.4.2.8.4 1.2.7 1.6 1.2 2.7 3.1 2.7 5.2l-.1.4z"/></svg><svg id="collage_white" viewBox="-5 -5 59 59" width="59" height="59" x="140" y="140" xmlns="http://www.w3.org/2000/svg"><style>.cst0{fill:none}.cst1{opacity:.3;enable-background:new}.cst1,.cst2{fill:#fff}</style><path class="cst0" d="M15.7 16.9l.1-6-4.5-1.4v11.7c.8-1.1 1.8-1.9 2.9-2.9.2-.3.3-.4.5-.6.2-.4.6-.6 1-.8zM24.7 11.5l10-3.3L24.6 6h-.3L14.2 8.2l10 3.3c.2.1.4.1.5 0z"/><path class="cst1" d="M17.9 31.6v-2c-1.1-1.5-1.7-3.3-1.9-5.1-1.4-1.2-2.2-2.9-2.2-4.6 0-.6.2-1.2.5-1.5-1.1.8-2 1.8-2.9 2.9v1.9c0 .6-.5 1.1-1.1 1.1-.3 0-.5-.1-.8-.3-1.3 2.3-1.9 5-1.9 7.8 0 1.7.3 3.4.8 4.8.3-.2.6-.3.9-.5l8.6-4.5zM33.1 24.4c-.3 1.9-1 3.7-2 5.2v1.9l8.7 4.2c.3.2.6.3.9.5.5-1.5.8-3.2.8-4.8 0-5.5-2.6-10.3-6.7-13.4.3.5.6 1.1.6 1.7-.2 1.8-1 3.5-2.3 4.7z"/><path class="cst2" d="M40.6 36.4c-.3-.2-.6-.3-.9-.5L31 31.7v-1.9c1.2-1.5 1.8-3.4 2-5.2 1.4-1.2 2.1-2.9 2.1-4.6 0-.7-.2-1.3-.6-1.7-.1-.2-.3-.3-.3-.4-.3-.3-.7-.6-1.1-.8V11l5.8-1.9c.6-.2.8-.8.7-1.4-.1-.3-.4-.7-.8-.8l-13.7-3c-.4-.1-.8-.1-1.2 0L10 6.9c-.6.1-1 .7-.9 1.3V23c0 .3.2.6.3.8.2.2.4.3.8.3.6 0 1.1-.5 1.1-1.1V9.4l4.5 1.4-.1 6c-.4.2-.8.4-1.2.7-.2.2-.3.4-.5.6-.3.5-.5 1-.5 1.5 0 1.8.8 3.6 2.2 4.6.3 1.8.9 3.6 1.9 5.1v2L9 35.7c-.3.2-.6.3-.9.5-1.9 1.4-3.4 3.9-3.4 6.5V44c0 .6.5 1.1 1.1 1.1h37.3c.6 0 1.1-.5 1.1-1.1v-1.4c0-2.6-1.4-4.9-3.6-6.2zM14.3 8.2L24.4 6h.3l10.1 2.2-10 3.3h-.3L14.3 8.2zm16.9 3.4v3c-.6.3-1.2.7-1.7.9-3.2 1.4-6.8 1.4-9.9 0-.6-.3-1.2-.5-1.6-.9v-3l5.8 1.9c.6.2 1.2.2 1.6 0l5.8-1.9zM17.5 23c-1.1-.8-1.7-1.9-1.7-3.2 0-.3.1-.5.3-.7.2-.2.4-.3.7-.3.6 0 1.1-.4 1.1-1v-.9c2 1.1 4.3 1.5 6.7 1.6 2.3 0 4.6-.6 6.7-1.6v.9c0 .6.5 1.1 1.1 1.1.3 0 .5.1.7.3.2.2.3.4.3.7 0 1.3-.6 2.4-1.6 3.2-.3.2-.4.4-.4.8-.2 1.7-.8 3.4-1.8 4.7-.6.3-.6.7-.6 1.1v2.4c-1.9 2.4-5.5 3-7.9 1-.3-.3-.8-.7-1-1v-2.4c0-.4-.2-.8-.3-1.1-1-1.4-1.5-3-1.7-4.6-.2-.5-.4-.9-.6-1zm24.6 20H6.9v-.3c0-1.7.8-3.3 2.2-4.2.3-.3.7-.4 1-.6h.1l8.5-4.2c1.4 1.6 3.6 2.6 5.8 2.6h-.1c2.2 0 4.3-1 5.8-2.6l8.5 4.2h.1c.3.2.7.3 1 .6 1.4 1 2.2 2.5 2.2 4.2l.1.3z"/></svg><svg id="reader" viewBox="-5 -5 70 70" width="70" height="70" x="199" y="199" xmlns="http://www.w3.org/2000/svg"><style>.dst0{fill:none}.dst1{fill:#d0e8f4}.dst2{fill:#999}</style><path class="dst0" d="M8.1 21.1c-.8.1-1.3.9-1.1 1.6l1.4 7.8c.1.7.7 1.2 1.4 1.2h.2l2.1-.4-1.8-10.6-2.2.4z"/><path class="dst1" d="M43.3 19.7c.9.9 1.4 2.1 1.2 3.5L43 31c-.3 1.8-1.9 3.2-3.8 3.2h-.7l-2.1-.3c-1.8 3.7-5.7 10.3-12 10.3-1.7 0-4.7-.6-7.8-3.8.2 1.4.5 2.8 1 4.1l1.4-.6H20l.1.1.1.1.1.1.1.1s.1 0 .1.1V44.7c.6 2.1 2.3 2.8 3.7 2.8 1.4 0 3.1-.7 3.7-2.8v-.1c.2-.6 1-.9 1.6-.7l9.1 3.7c.6.2.9 1 .7 1.6-.2.5-.7.8-1.1.8-.1 0-.3 0-.5-.1l-7.9-3.2c-1.1 2.1-3.2 3.3-5.6 3.3s-4.5-1.3-5.6-3.3l-.3.1C21.9 53 28.4 57.3 36 57.3c10.8 0 19.5-8.7 19.5-19.5 0-8.2-5.1-15.2-12.2-18.1z"/><path class="dst2" d="M38.9 47.5l-9.1-3.7c-.6-.2-1.4 0-1.6.7v.1c-.6 2.1-2.3 2.8-3.7 2.8-1.4 0-3.1-.7-3.7-2.8v-.2-.1s0-.1-.1-.1c0 0 0-.1-.1-.1l-.2-.1-.1-.1s-.1 0-.1-.1h-.1-.1-.1-.4-.1-.2l-1.4.6-7.8 3.1c-.6.2-.9 1-.7 1.6.2.5.7.8 1.2.8.2 0 .3 0 .5-.1l7.6-3.1.3-.1c1.1 2.1 3.2 3.3 5.6 3.3s4.5-1.3 5.6-3.3l7.9 3.2c.2.1.3.1.5.1.5 0 .9-.3 1.1-.8.2-.6 0-1.3-.7-1.6z"/><path class="dst2" d="M43.3 19.7c-.5-.4-1.1-.8-1.7-1-.5-9-8-16-17-16-9.1 0-16.5 7-17 16-2 .5-3.3 2.4-2.9 4.4L6 31c.3 1.8 1.9 3.2 3.8 3.2h.7l3.3-.6c.7-.1 1.1-.7 1-1.4l-1.7-9.5c.8-1.4 1.6-2.2 2.5-2.5 1.7-.5 4.1.7 6.9 2.1.3.2.7.4 1.1.6C26.5 24.4 30 26 34 26c.5 0 1 0 1.5-.1l-1 6.4c-3.8 8.4-8.2 9.3-10 9.3-1.6 0-4.8-.7-7.9-5.4-.2-.2-.3-.5-.5-.8-.4-.6-1.1-.8-1.7-.4-.6.4-.8 1.1-.4 1.7.9 1.5 1.8 2.6 2.7 3.6 3.1 3.2 6.1 3.8 7.8 3.8 6.3 0 10.3-6.6 12-10.3l2.1.3h.7c1.9 0 3.5-1.4 3.8-3.2l1.4-7.8c.2-1.2-.3-2.5-1.2-3.4zM10 31.8h-.2c-.7 0-1.3-.5-1.4-1.2L7 22.8c-.1-.8.4-1.5 1.1-1.6l2.1-.4L12 31.4l-2 .4zm23.4-8.5c-3.7.5-5.4-.6-7.8-2.1-.6-.4-1.3-.8-2.1-1.2-3.2-1.7-6-3.2-8.7-2.3-.9.3-1.6.8-2.3 1.5V19c0-.3-.2-.6-.5-.8-.3-.2-.7-.2-1-.2l-1 .2c.8-7.4 7-13.1 14.5-13.1S38.2 10.8 39 18.2l-.7-.1c-1.7-7.3-6.7-11.5-13.9-11.5-6.3 0-10.9 3.2-13.1 9.1-.2.7.1 1.4.7 1.6.7.2 1.4-.1 1.6-.7 1.8-4.9 5.5-7.6 10.7-7.5 6.2.1 8.1 5.4 8.7 9.5.6 2.6.4 4.7.4 4.7zm8.6-.5l-1.4 7.8c-.1.7-.7 1.2-1.4 1.2H39l-1.9-.3 1.7-10.7 2.1.4c.7 0 1.2.8 1.1 1.6z"/></svg><svg viewBox="-5 -5 70 70" width="70" height="70" id="reader_dark" x="269" y="269" xmlns="http://www.w3.org/2000/svg"><style>.est0{fill:none}.est1{fill:#7aabc5}.est2{fill:#666}</style><path class="est0" d="M8.1 21.1c-.8.1-1.3.9-1.1 1.6l1.4 7.8c.1.7.7 1.2 1.4 1.2h.2l2.1-.4-1.8-10.6-2.2.4z"/><path class="est1" d="M43.3 19.7c.9.9 1.4 2.1 1.2 3.5L43 31c-.3 1.8-1.9 3.2-3.8 3.2h-.7l-2.1-.3c-1.8 3.7-5.7 10.3-12 10.3-1.7 0-4.7-.6-7.8-3.8.2 1.4.5 2.8 1 4.1l1.4-.6H20l.1.1.1.1.1.1.1.1s.1 0 .1.1V44.7c.6 2.1 2.3 2.8 3.7 2.8 1.4 0 3.1-.7 3.7-2.8v-.1c.2-.6 1-.9 1.6-.7l9.1 3.7c.6.2.9 1 .7 1.6-.2.5-.7.8-1.1.8-.1 0-.3 0-.5-.1l-7.9-3.2c-1.1 2.1-3.2 3.3-5.6 3.3s-4.5-1.3-5.6-3.3l-.3.1C21.9 53 28.4 57.3 36 57.3c10.8 0 19.5-8.7 19.5-19.5 0-8.2-5.1-15.2-12.2-18.1z"/><path class="est2" d="M38.9 47.5l-9.1-3.7c-.6-.2-1.4 0-1.6.7v.1c-.6 2.1-2.3 2.8-3.7 2.8-1.4 0-3.1-.7-3.7-2.8V44.3s0-.1-.1-.1c0 0 0-.1-.1-.1l-.2-.1-.1-.1s-.1 0-.1-.1H19.4h-.2l-1.4.6-7.8 3.1c-.6.2-.9 1-.7 1.6.2.5.7.8 1.2.8.2 0 .3 0 .5-.1l7.6-3.1.3-.1c1.1 2.1 3.2 3.3 5.6 3.3s4.5-1.3 5.6-3.3l7.9 3.2c.2.1.3.1.5.1.5 0 .9-.3 1.1-.8.2-.6 0-1.3-.7-1.6z"/><path class="est2" d="M43.3 19.7c-.5-.4-1.1-.8-1.7-1-.5-9-8-16-17-16-9.1 0-16.5 7-17 16-2 .5-3.3 2.4-2.9 4.4L6 31c.3 1.8 1.9 3.2 3.8 3.2h.7l3.3-.6c.7-.1 1.1-.7 1-1.4l-1.7-9.5c.8-1.4 1.6-2.2 2.5-2.5 1.7-.5 4.1.7 6.9 2.1.3.2.7.4 1.1.6C26.5 24.4 30 26 34 26c.5 0 1 0 1.5-.1l-1 6.4c-3.8 8.4-8.2 9.3-10 9.3-1.6 0-4.8-.7-7.9-5.4-.2-.2-.3-.5-.5-.8-.4-.6-1.1-.8-1.7-.4-.6.4-.8 1.1-.4 1.7.9 1.5 1.8 2.6 2.7 3.6 3.1 3.2 6.1 3.8 7.8 3.8 6.3 0 10.3-6.6 12-10.3l2.1.3h.7c1.9 0 3.5-1.4 3.8-3.2l1.4-7.8c.2-1.2-.3-2.5-1.2-3.4zM10 31.8h-.2c-.7 0-1.3-.5-1.4-1.2L7 22.8c-.1-.8.4-1.5 1.1-1.6l2.1-.4L12 31.4l-2 .4zm23.4-8.5c-3.7.5-5.4-.6-7.8-2.1-.6-.4-1.3-.8-2.1-1.2-3.2-1.7-6-3.2-8.7-2.3-.9.3-1.6.8-2.3 1.5V19c0-.3-.2-.6-.5-.8-.3-.2-.7-.2-1-.2l-1 .2c.8-7.4 7-13.1 14.5-13.1S38.2 10.8 39 18.2l-.7-.1c-1.7-7.3-6.7-11.5-13.9-11.5-6.3 0-10.9 3.2-13.1 9.1-.2.7.1 1.4.7 1.6.7.2 1.4-.1 1.6-.7 1.8-4.9 5.5-7.6 10.7-7.5 6.2.1 8.1 5.4 8.7 9.5.6 2.6.4 4.7.4 4.7zm8.6-.5l-1.4 7.8c-.1.7-.7 1.2-1.4 1.2H39l-1.9-.3 1.7-10.7 2.1.4c.7 0 1.2.8 1.1 1.6z"/></svg><svg id="reader_white" viewBox="-5 -5 59 59" width="59" height="59" x="339" y="339" xmlns="http://www.w3.org/2000/svg"><style>.fst0{fill:none}.fst1{opacity:.3}.fst1,.fst2{fill:#fff}</style><path class="fst0" d="M7.7 17.7c-.6.1-1 .7-.8 1.2l1.1 6c0 .5.5.9 1 .9h.2l1.6-.3-1.4-8.1-1.7.3z"/><path class="fst1" d="M34.7 16.6c.7.7 1.1 1.6.9 2.7l-1.2 6c-.2 1.4-1.5 2.5-2.9 2.5H31l-1.6-.2c-1.4 2.8-4.4 7.9-9.2 7.9-1.3 0-3.6-.5-6-2.9.2 1.1.4 2.1.8 3.1l1.1-.5H17.1l.1.1.1.1.1.1.1.1s.1 0 .1.1V36c.5 1.6 1.8 2.1 2.8 2.1 1.1 0 2.4-.5 2.8-2.1v-.1c.2-.5.8-.7 1.2-.5l7 2.8c.5.2.7.8.5 1.2-.2.4-.5.6-.8.6-.1 0-.2 0-.4-.1l-6.1-2.5c-.8 1.6-2.5 2.5-4.3 2.5-1.8 0-3.5-1-4.3-2.5l-.2.1c2.8 4.8 7.7 8.1 13.6 8.1 8.3 0 15-6.7 15-15-.3-6.4-4.2-11.8-9.7-14z"/><path class="fst2" d="M31.3 37.9l-7-2.8c-.5-.2-1.1 0-1.2.5v.1c-.5 1.6-1.8 2.1-2.8 2.1s-2.4-.5-2.8-2.1V35.4s0-.1-.1-.1c0 0 0-.1-.1-.1l-.2-.1-.1-.1s-.1 0-.1-.1H16.1h-.2l-1.1.5-6 2.4c-.5.2-.7.8-.5 1.2.2.4.5.6.9.6.2 0 .2 0 .4-.1l5.8-2.4.2-.1c.8 1.6 2.5 2.5 4.3 2.5 1.8 0 3.5-1 4.3-2.5l6.1 2.5c.2.1.2.1.4.1.4 0 .7-.2.8-.6.5-.3.4-.8-.2-1.1z"/><path class="fst2" d="M34.7 16.6c-.4-.3-.8-.6-1.3-.8-.4-6.9-6.1-12.2-13-12.2-7 0-12.7 5.4-13 12.3-1.5.4-2.5 1.8-2.2 3.4l1 6.1c.2 1.4 1.5 2.5 2.9 2.5h.5l2.5-.5c.5-.1.8-.5.8-1.1L11.6 19c.6-1.1 1.2-1.7 1.9-1.9 1.3-.4 3.1.5 5.3 1.6.2.2.5.3.8.5 2.2 1.2 4.9 2.4 8 2.4.4 0 .8 0 1.2-.1l-.8 4.8c-2.9 6.4-6.3 7.1-7.7 7.1-1.2 0-3.7-.5-6.1-4.1-.2-.2-.2-.4-.4-.6-.3-.5-.8-.6-1.3-.3s-.6.8-.3 1.3c.7 1.2 1.4 2 2.1 2.8 2.4 2.5 4.7 2.9 6 2.9 4.8 0 7.9-5.1 9.2-7.9l1.6.2h.5c1.5 0 2.7-1.1 2.9-2.5l1.1-6c.2-.9-.2-1.9-.9-2.6zM9.2 25.9H9c-.5 0-1-.4-1.1-.9l-1.1-6c-.1-.6.3-1.2.8-1.2l1.6-.3 1.4 8.1-1.4.3zm17.9-6.5c-2.8.4-4.1-.5-6-1.6-.5-.3-1-.6-1.6-.9-2.5-1.3-4.6-2.5-6.7-1.8-.7.2-1.2.6-1.8 1.2v-.2c0-.2-.2-.5-.4-.6-.2-.2-.5-.2-.8-.2l-.8.2c.8-5.7 5.5-10.1 11.3-10.1s10.5 4.4 11.1 10.1l-.5-.1c-1.3-5.6-5.1-8.8-10.7-8.8-4.8 0-8.4 2.5-10.1 7-.2.5.1 1.1.5 1.2.5.2 1.1-.1 1.2-.5 1.4-3.8 4.2-5.8 8.2-5.8 4.8.1 6.2 4.1 6.7 7.3.6 1.9.4 3.6.4 3.6zm6.6-.4l-1.1 6c-.1.5-.5.9-1.1.9h-.2l-1.3-.2 1.3-8.2 1.6.3c.5-.1.9.6.8 1.2z"/></svg><svg id="school" viewBox="-5 -5 105.3 78" width="105.3" height="78" x="398" y="398" xmlns="http://www.w3.org/2000/svg"><style>.gst0{fill:none}.gst1{fill:#d0e8f4}.gst2{fill:#999}</style><path class="gst0" d="M2.3 65.7h18.1V45.4H2.3v20.3zM16 48.3v12H6.7v-12H16zM2.3 40h18.1v3.1H2.3z"/><path class="gst0" d="M9 55.5h4.7V58H9zM33.8 37.7c0-1-.8-1.9-1.9-1.9-1 0-1.9.8-1.9 1.9h3.8zM35.2 50.5h6.3v15.1h-6.3zM30.1 40h3.7v3.5h-3.7zM35.2 2.3h6.3v3h-6.3zM9 50.6h4.7v2.5H9zM78.4 58.1h6.4v1.7h-6.4zM78.4 55.8h6.4v-14h-1.1c-1.1 3.4-2.9 6.4-5.3 8.9v5.1z"/><path class="gst1" d="M84.4 39.4c.3-1.6.5-3.2.5-4.9 0-11.7-8.6-21.5-19.8-23.2v46.4c1.5-.2 3-.6 4.5-1.2l2.2-17.1h12.6zM61.4 11H60h2.8-1.4z"/><path class="gst1" d="M78.4 50.6c2.4-2.5 4.2-5.5 5.3-8.9h-5.3v8.9zM73.8 41.8l-1.7 13.7c1.4-.7 2.8-1.6 4.1-2.6v-11h-2.4z"/><path class="gst2" d="M22.7 18.8h-2.3v18.9h2.3V18.8zM62.7 18.8V65.7H52.5v2.2H32.9v-2.2H22.7V68H65V18.8h-2.3zM36.2 37.7c0-2.3-1.9-4.2-4.2-4.2s-4.2 1.9-4.2 4.2v8.1h8.4v-8.1zM35 40h-1.2v3.5h-3.7V40h-1.2v-2.3h1.2c0-1 .8-1.9 1.9-1.9 1 0 1.9.8 1.9 1.9H35V40z"/><path class="gst2" d="M42.7 33.5c-2.3 0-4.2 1.9-4.2 4.2v8.1h8.4v-8.1c0-2.4-1.9-4.2-4.2-4.2zm3.1 6.5h-1.2v3.5h-3.7V40h-1.2v-2.3h1.2c0-1 .8-1.9 1.9-1.9s1.9.8 1.9 1.9h1.2V40zM57.7 37.7c0-2.3-1.9-4.2-4.2-4.2s-4.2 1.9-4.2 4.2v8.1h8.4v-8.1zM56.5 40h-1.2v3.5h-3.7V40h-1.2v-2.3h1.2c0-1 .8-1.9 1.9-1.9s1.9.8 1.9 1.9h1.2V40z"/><path d="M44.2 50.5l-.3-.3v.3h.3z"/><path class="gst2" d="M43.9 66.8h-2.3v-1.1H33v2.2h19.6v-2.2h-8.7v1.1zM41.6 50.5h2.3v15.1h-2.3z"/><path d="M41.6 65.6h2.3v.1h-2.3z"/><path class="gst2" d="M42.3 48.2H33v17.5h8.6v-.1h-6.3V50.5h8.6v-.3l.3.3h6.1V65.6H44v.1h8.7v-9.4-8.1H42.3zM41.6 65.7h2.3v1.1h-2.3zM41.6 7.6h2.3V11h-2.3zM35.2 5.3v-3h6.4V1.2h2.3V0h-11v7.6h8.7V5.3z"/><path class="gst2" d="M43.9 1.2h-2.3V7.6h2.3zM42.7 21.2c-.3 0-.5 0-.8.1-2.3.4-4 2.3-4 4.7 0 .9.3 1.7.7 2.4.8 1.4 2.3 2.3 4 2.3 2.6 0 4.7-2.1 4.7-4.7s-2-4.8-4.6-4.8zm0 7.1c-1.3 0-2.4-1.1-2.4-2.4 0-1.3 1.1-2.4 2.4-2.4s2.4 1.1 2.4 2.4c0 1.3-1 2.4-2.4 2.4zM62.8 11H43.9v1.3h-2.3V11H20.4V18.7H65V11h-2.2zm-.1 5.5h-40v-3h40v3z"/><path class="gst2" d="M41.6 11v1.3h2.3V11zM2.3 65.7V45.4H0V68h20.4v-2.3zM22.7 45.4h-2.3V68h2.3v-2.3-20.3z"/><path class="gst2" d="M16 60.3v-12H6.7v12H16zm-8.1-7.2H9v-2.5h4.7v2.5h1.2v2.3h-1.2V58H9v-2.5H7.9v-2.4z"/><path class="gst2" d="M9 53.1h4.7v2.3H9zM13.7 53.1h1.2v2.3h-1.2z"/><path class="gst2" d="M7.9 53.1h1.2v2.3H7.9zM2.3 43.1h18.1v2.3H2.3z"/><path class="gst2" d="M2.3 43.1V40h18.1v-2.3H0v7.7h2.3z"/><path class="gst2" d="M20.4 43.1v2.3h2.3v-7.7h-2.3v5.4zM91.6 39.4H71.7l-2.2 17.2L68 68h2.5l1.6-12.6 1.7-13.6h2.3v-1.2h2.3v1.2h6.5v-1.2h2.3v1.2h2.3L92.9 68h2.4z"/><path class="gst2" d="M84.9 55.8h-6.4V58h-2.3v4.1h11.1V58H85v-2.2zm0 4h-6.4v-1.7h6.4v1.7zM78.4 50.6c-.7.8-1.5 1.5-2.3 2.2v3h2.3v-5.2z"/><path class="gst2" d="M78.4 50.6v-8.9h-2.3v11c.8-.6 1.6-1.3 2.3-2.1z"/><path class="gst2" d="M76.1 40.6h2.3v1.2h-2.3zM76.1 55.8h2.3V58h-2.3zM84.9 55.8h2.3V58 41.8h-2.3v14z"/><path class="gst2" d="M84.9 40.6h2.3v1.2h-2.3zM84.9 55.8V58h2.3v-2.2h-2.3zM30.1 37.7h3.7V40h-3.7zM28.9 37.7h1.2V40h-1.2z"/><path class="gst2" d="M33.8 37.7H35V40h-1.2zM40.9 37.7h3.7V40h-3.7zM44.6 37.7h1.2V40h-1.2z"/><path class="gst2" d="M39.7 37.7h1.2V40h-1.2zM51.6 37.7h3.7V40h-3.7zM55.4 37.7h1.2V40h-1.2z"/><path class="gst2" d="M50.5 37.7h1.2V40h-1.2z"/></svg><svg id="school_dark" viewBox="-5 -5 105.3 78" width="105.3" height="78" x="504" y="476" xmlns="http://www.w3.org/2000/svg"><style>.hst0{fill:none}.hst1{fill:#7aabc5}.hst2{fill:#d0e8f4}.hst3{fill:#666}</style><path class="hst0" d="M2.3 65.7h18.1V45.4H2.3v20.3zM16 48.3v12H6.7v-12H16zM2.3 40h18.1v3.1H2.3z"/><path class="hst0" d="M9 55.5h4.7V58H9zM33.8 37.7c0-1-.8-1.9-1.9-1.9-1 0-1.9.8-1.9 1.9h3.8zM35.2 50.5h6.3v15.1h-6.3zM30.1 40h3.7v3.5h-3.7zM35.2 2.3h6.3v3h-6.3zM9 50.6h4.7v2.5H9zM78.4 58.1h6.4v1.7h-6.4zM78.4 55.8h6.4v-14h-1.1c-1.1 3.4-2.9 6.4-5.3 8.9v5.1z"/><path class="hst1" d="M84.4 39.4c.3-1.6.5-3.2.5-4.9 0-11.7-8.6-21.5-19.8-23.2v46.4c1.5-.2 3-.6 4.5-1.2l2.2-17.1h12.6z"/><path class="hst2" d="M61.4 11H60h2.8-1.4z"/><path class="hst1" d="M78.4 50.6c2.4-2.5 4.2-5.5 5.3-8.9h-5.3v8.9zM73.8 41.8l-1.7 13.7c1.4-.7 2.8-1.6 4.1-2.6v-11h-2.4v-.1z"/><path class="hst3" d="M22.7 18.8h-2.3v18.9h2.3V18.8zM62.7 18.8V65.7H52.5v2.2H32.9v-2.2H22.7V68H65V18.8h-2.3zM36.2 37.7c0-2.3-1.9-4.2-4.2-4.2s-4.2 1.9-4.2 4.2v8.1h8.4v-8.1zM35 40h-1.2v3.5h-3.7V40h-1.2v-2.3h1.2c0-1 .8-1.9 1.9-1.9 1 0 1.9.8 1.9 1.9H35V40z"/><path class="hst3" d="M42.7 33.5c-2.3 0-4.2 1.9-4.2 4.2v8.1h8.4v-8.1c0-2.4-1.9-4.2-4.2-4.2zm3.1 6.5h-1.2v3.5h-3.7V40h-1.2v-2.3h1.2c0-1 .8-1.9 1.9-1.9s1.9.8 1.9 1.9h1.2V40h-.1zM57.7 37.7c0-2.3-1.9-4.2-4.2-4.2s-4.2 1.9-4.2 4.2v8.1h8.4v-8.1zM56.5 40h-1.2v3.5h-3.7V40h-1.2v-2.3h1.2c0-1 .8-1.9 1.9-1.9s1.9.8 1.9 1.9h1.2V40h-.1z"/><path d="M44.2 50.5l-.3-.3v.3h.3z"/><path class="hst3" d="M43.9 66.8h-2.3v-1.1H33v2.2h19.6v-2.2h-8.7v1.1zM41.6 50.5h2.3v15.1h-2.3z"/><path d="M41.6 65.6h2.3v.1h-2.3z"/><path class="hst3" d="M42.3 48.2H33v17.5h8.6v-.1h-6.3V50.5h8.6v-.3l.3.3h6.1V65.6H44v.1h8.7v-9.4-8.1H42.3zM41.6 65.7h2.3v1.1h-2.3zM41.6 7.6h2.3V11h-2.3zM35.2 5.3v-3h6.4V1.2h2.3V0h-11v7.6h8.7V5.3z"/><path class="hst3" d="M43.9 1.2h-2.3V7.6h2.3zM42.7 21.2c-.3 0-.5 0-.8.1-2.3.4-4 2.3-4 4.7 0 .9.3 1.7.7 2.4.8 1.4 2.3 2.3 4 2.3 2.6 0 4.7-2.1 4.7-4.7s-2-4.8-4.6-4.8zm0 7.1c-1.3 0-2.4-1.1-2.4-2.4s1.1-2.4 2.4-2.4 2.4 1.1 2.4 2.4c0 1.3-1 2.4-2.4 2.4zM62.8 11H43.9v1.3h-2.3V11H20.4V18.7H65V11h-2.2zm-.1 5.5h-40v-3h40v3z"/><path class="hst3" d="M41.6 11v1.3h2.3V11zM2.3 65.7V45.4H0V68h20.4v-2.3zM22.7 45.4h-2.3V68h2.3v-2.3-20.3z"/><path class="hst3" d="M16 60.3v-12H6.7v12H16zm-8.1-7.2H9v-2.5h4.7v2.5h1.2v2.3h-1.2V58H9v-2.5H7.9v-2.4z"/><path class="hst3" d="M9 53.1h4.7v2.3H9zM13.7 53.1h1.2v2.3h-1.2z"/><path class="hst3" d="M7.9 53.1h1.2v2.3H7.9zM2.3 43.1h18.1v2.3H2.3z"/><path class="hst3" d="M2.3 43.1V40h18.1v-2.3H0v7.7h2.3z"/><path class="hst3" d="M20.4 43.1v2.3h2.3v-7.7h-2.3v5.4zM91.6 39.4H71.7l-2.2 17.2L68 68h2.5l1.6-12.6 1.7-13.6h2.3v-1.2h2.3v1.2h6.5v-1.2h2.3v1.2h2.3L92.9 68h2.4z"/><path class="hst3" d="M84.9 55.8h-6.4V58h-2.3v4.1h11.1V58H85l-.1-2.2zm0 4h-6.4v-1.7h6.4v1.7zM78.4 50.6c-.7.8-1.5 1.5-2.3 2.2v3h2.3v-5.2z"/><path class="hst3" d="M78.4 50.6v-8.9h-2.3v11c.8-.6 1.6-1.3 2.3-2.1z"/><path class="hst3" d="M76.1 40.6h2.3v1.2h-2.3zM76.1 55.8h2.3V58h-2.3zM84.9 55.8h2.3V58 41.8h-2.3v14z"/><path class="hst3" d="M84.9 40.6h2.3v1.2h-2.3zM84.9 55.8V58h2.3v-2.2h-2.3zM30.1 37.7h3.7V40h-3.7zM28.9 37.7h1.2V40h-1.2z"/><path class="hst3" d="M33.8 37.7H35V40h-1.2zM40.9 37.7h3.7V40h-3.7zM44.6 37.7h1.2V40h-1.2z"/><path class="hst3" d="M39.7 37.7h1.2V40h-1.2zM51.6 37.7h3.7V40h-3.7zM55.4 37.7h1.2V40h-1.2z"/><path class="hst3" d="M50.5 37.7h1.2V40h-1.2z"/></svg><svg id="school_white" viewBox="-5 -5 78.7 59" width="78.7" height="59" x="610" y="554" xmlns="http://www.w3.org/2000/svg"><style>.ist0{fill:none}.ist1{opacity:.3;fill:#fff}.ist2{fill:#d0e8f4}.ist3{fill:#fff}</style><path class="ist0" d="M1.7 47.3h13V32.7h-13v14.6zm9.8-12.5v8.6H4.8v-8.6h6.7zM1.7 28.8h13V31h-13z"/><path class="ist0" d="M6.5 40h3.4v1.8H6.5zM24.4 27.2c0-.7-.6-1.4-1.4-1.4-.7 0-1.4.6-1.4 1.4h2.8zM25.4 36.4h4.5v10.9h-4.5zM21.7 28.8h2.7v2.5h-2.7zM25.4 1.7h4.5v2.2h-4.5zM6.5 36.5h3.4v1.8H6.5zM56.5 41.9h4.6v1.2h-4.6zM56.5 40.2h4.6V30.1h-.8c-.8 2.4-2.1 4.6-3.8 6.4v3.7z"/><path class="ist1" d="M60.8 28.4c.2-1.2.4-2.3.4-3.5 0-8.4-6.2-15.5-14.3-16.7v33.4c1.1-.1 2.2-.4 3.2-.9l1.6-12.3h9.1z"/><path class="ist2" d="M44.2 7.9h-1 2-1z"/><path class="ist1" d="M56.5 36.5c1.7-1.8 3-4 3.8-6.4h-3.8v6.4zM53.2 30.1L52 40c1-.5 2-1.2 3-1.9v-7.9l-1.8-.1z"/><path class="ist3" d="M16.4 13.5h-1.7v13.6h1.7V13.5zM45.2 13.5v33.7h-7.3v1.6H23.7v-1.6h-7.4V49h30.5V13.6h-1.6zM26.1 27.2c0-1.7-1.4-3-3-3s-3 1.4-3 3V33h6.1c-.1 0-.1-5.8-.1-5.8zm-.9 1.6h-.9v2.5h-2.7v-2.5h-.9v-1.7h.9c0-.7.6-1.4 1.4-1.4.7 0 1.4.6 1.4 1.4h.8v1.7z"/><path class="ist3" d="M30.8 24.1c-1.7 0-3 1.4-3 3V33h6.1v-5.8c-.1-1.8-1.5-3.1-3.1-3.1zm2.2 4.7h-.9v2.5h-2.7v-2.5h-.9v-1.7h.9c0-.7.6-1.4 1.4-1.4.8 0 1.4.6 1.4 1.4h.9l-.1 1.7zM41.6 27.2c0-1.7-1.4-3-3-3s-3 1.4-3 3V33h6.1c-.1 0-.1-5.8-.1-5.8zm-.9 1.6h-.9v2.5h-2.7v-2.5h-.9v-1.7h.9c0-.7.6-1.4 1.4-1.4s1.4.6 1.4 1.4h.9l-.1 1.7zM31.9 36.4l-.2-.2v.2h.2zM31.6 48.1H30v-.8h-6.2v1.6h14.1v-1.6h-6.3v.8zM30 36.4h1.7v10.9H30z"/><path class="ist3" d="M30 47.3h1.7v.1H30z"/><path class="ist3" d="M30.5 34.7h-6.7v12.6H30v-.1h-4.5V36.4h6.2v-.2l.2.2h4.4v10.9h-4.5v.1H38v-6.8-5.8l-7.5-.1z"/><path class="ist3" d="M30 47.3h1.7v.8H30zM30 5.5h1.7V8H30zM25.4 3.8V1.7H30V.9h1.6V0h-7.9v5.5H30V3.8z"/><path class="ist3" d="M31.6.9H30V5.5h1.6zM30.8 15.3c-.2 0-.4 0-.6.1-1.7.3-2.9 1.7-2.9 3.4 0 .6.2 1.2.5 1.7.6 1 1.7 1.7 2.9 1.7 1.9 0 3.4-1.5 3.4-3.4s-1.5-3.5-3.3-3.5zm0 5.1c-.9 0-1.7-.8-1.7-1.7s.8-1.7 1.7-1.7c.9 0 1.7.8 1.7 1.7 0 .9-.7 1.7-1.7 1.7zM45.3 7.9H31.6v1H30v-1H14.7v5.6h32.2V7.9h-1.6zm-.1 4H16.4V9.7h28.8v2.2z"/><path class="ist3" d="M30 7.9v1h1.6v-1zM1.7 47.3V32.7H0V49h14.7v-1.7zM16.4 32.7h-1.7V49h1.7v-1.7-14.6z"/><path class="ist3" d="M11.5 43.5v-8.6H4.8v8.6h6.7zm-5.8-5.2h.8v-1.8h3.4v1.8h.9V40h-.9v1.9H6.5V40h-.8v-1.7z"/><path class="ist3" d="M6.5 38.3h3.4V40H6.5zM9.9 38.3h.9V40h-.9z"/><path class="ist3" d="M5.7 38.3h.9V40h-.9zM1.7 31.1h13v1.7h-13z"/><path class="ist3" d="M1.7 31.1v-2.3h13v-1.6H0v5.5h1.7zM14.7 31.1v1.7h1.7v-5.5h-1.7v3.8zM66 28.4H51.7l-1.6 12.4L49 49h1.8l1.2-9.1 1.2-9.8h1.6v-.8h1.7v.8h4.7v-.8h1.6v.8h1.7L66.9 49h1.8z"/><path class="ist3" d="M61.2 40.2h-4.6v1.6h-1.7v3h8v-3h-1.7v-1.6zm0 2.9h-4.6v-1.2h4.6v1.2zM56.5 36.5c-.5.5-1.1 1-1.7 1.5v2.2h1.7v-3.7z"/><path class="ist3" d="M56.5 36.5V30h-1.7v8c.6-.5 1.2-1 1.7-1.5z"/><path class="ist3" d="M54.8 29.3h1.7v.9h-1.7zM54.8 40.2h1.7v1.6h-1.7zM61.2 40.2h1.7v1.6-11.7h-1.7v10.1z"/><path class="ist3" d="M61.2 29.3h1.7v.9h-1.7zM61.2 40.2v1.6h1.7v-1.6h-1.7zM21.7 27.2h2.7v1.7h-2.7zM20.8 27.2h.9v1.7h-.9zM24.4 27.2h.9v1.7h-.9zM29.5 27.2h2.7v1.7h-2.7z"/><path class="ist3" d="M32.1 27.2h.9v1.7h-.9zM28.6 27.2h.9v1.7h-.9zM37.2 27.2h2.7v1.7h-2.7z"/><path class="ist3" d="M39.9 27.2h.9v1.7h-.9zM36.4 27.2h.9v1.7h-.9z"/></svg><svg id="teacher" viewBox="-5 -5 70 70" width="70" height="70" x="689" y="613" xmlns="http://www.w3.org/2000/svg"><style>.jst0{fill:#d0e8f4}.jst1{fill:#999}</style><circle class="jst0" cx="40.5" cy="22.2" r="19.5"/><path class="jst1" d="M4.3 14.1c0 3.3 2.7 6 6 6s6-2.7 6-6-2.7-6-6-6-6 2.7-6 6zm9.5 0c0 1.9-1.6 3.5-3.5 3.5S6.8 16 6.8 14.1s1.6-3.5 3.5-3.5 3.5 1.6 3.5 3.5zM1.3 36.4c.2 1.6 1.1 2.9 2.5 3.7l2 14.6c.2 1.5 1.4 2.6 2.9 2.6H12c1.5 0 2.7-1.1 2.9-2.6l1-8.9 2-14.9 2.2 1.8c1.3 1.1 3.1 1.1 4.4.1l6.6-5.2c1.4-1.1 1.8-3.1.9-4.7-1-1.7-3.2-2.2-4.8-1.2-.1.1-.2.2-.3.2l-4.4 3.5-4.5-3.7c-.6-.5-1.4-.8-2.2-.8h-2c-.5 0-.9.2-1.2.5l-2 2.5-2-2.5c-.3-.4-.7-.6-1.2-.6H5.5c-3.1 0-5.5 2.5-5.5 5.5v.6l1.3 9.5zm2-11.9c.6-.6 1.4-1 2.2-1h1.1l2.3 2.9c.6.8 1.7.9 2.5.3l.3-.3 2.3-2.9h1.6c.2 0 .4.1.6.2l5.3 4.4c.5.4 1.1.4 1.6 0l5.2-4.1c.2-.1.4-.2.6-.2.3 0 .7.2.8.5.2.5.1 1-.3 1.3l-6.6 5.2c-.4.3-.9.3-1.2 0l-4-3.3c-.5-.4-1.3-.4-1.8.2-.2.2-.2.4-.3.6l-2.3 17.2-1 9c0 .2-.2.3-.4.3H8.6c-.2 0-.4-.2-.4-.4L6.1 39.1c-.1-.5-.4-.9-.8-1-.8-.3-1.4-1.1-1.5-2l-1.3-9.3c-.1-.8.2-1.7.8-2.3z"/><path class="jst1" d="M19.3 9.7v9.2c0 .7.6 1.3 1.3 1.3.7 0 1.3-.6 1.3-1.3V11h25.6v25.1H20.6c-.7 0-1.3.6-1.3 1.3 0 .7.6 1.3 1.3 1.3h12.8v8.5h-8c-.7 0-1.3.4-1.6 1L21 53.5c-.3.6-.1 1.4.5 1.7.6.3 1.4.1 1.7-.5l2.6-5h17.8l2.6 5c.3.6 1.1.9 1.7.5.6-.3.9-1.1.5-1.7l-2.8-5.3c-.3-.6-1-1-1.6-1h-8v-8.5h12.8c.7 0 1.3-.6 1.3-1.3V9.7c0-.7-.6-1.3-1.3-1.3H20.6c-.7 0-1.3.6-1.3 1.3z"/></svg><svg id="teacher_dark" viewBox="-5 -5 70 70" width="70" height="70" x="759" y="683" xmlns="http://www.w3.org/2000/svg"><style>.kst0{fill:#7aabc5}.kst1{fill:#666}</style><circle class="kst0" cx="40.5" cy="22.2" r="19.5"/><path class="kst1" d="M4.3 14.1c0 3.3 2.7 6 6 6s6-2.7 6-6-2.7-6-6-6-6 2.7-6 6zm9.5 0c0 1.9-1.6 3.5-3.5 3.5S6.8 16 6.8 14.1s1.6-3.5 3.5-3.5 3.5 1.6 3.5 3.5zM1.3 36.4c.2 1.6 1.1 2.9 2.5 3.7l2 14.6c.2 1.5 1.4 2.6 2.9 2.6H12c1.5 0 2.7-1.1 2.9-2.6l1-8.9 2-14.9 2.2 1.8c1.3 1.1 3.1 1.1 4.4.1l6.6-5.2c1.4-1.1 1.8-3.1.9-4.7-1-1.7-3.2-2.2-4.8-1.2-.1.1-.2.2-.3.2l-4.4 3.5-4.5-3.7c-.6-.5-1.4-.8-2.2-.8h-2c-.5 0-.9.2-1.2.5l-2 2.5-2-2.5c-.3-.4-.7-.6-1.2-.6H5.5c-3.1 0-5.5 2.5-5.5 5.5v.6l1.3 9.5zm2-11.9c.6-.6 1.4-1 2.2-1h1.1l2.3 2.9c.6.8 1.7.9 2.5.3l.3-.3 2.3-2.9h1.6c.2 0 .4.1.6.2l5.3 4.4c.5.4 1.1.4 1.6 0l5.2-4.1c.2-.1.4-.2.6-.2.3 0 .7.2.8.5.2.5.1 1-.3 1.3l-6.6 5.2c-.4.3-.9.3-1.2 0l-4-3.3c-.5-.4-1.3-.4-1.8.2-.2.2-.2.4-.3.6l-2.3 17.2-1 9c0 .2-.2.3-.4.3H8.6c-.2 0-.4-.2-.4-.4L6.1 39.1c-.1-.5-.4-.9-.8-1-.8-.3-1.4-1.1-1.5-2l-1.3-9.3c-.1-.8.2-1.7.8-2.3z"/><path class="kst1" d="M19.3 9.7v9.2c0 .7.6 1.3 1.3 1.3.7 0 1.3-.6 1.3-1.3V11h25.6v25.1H20.6c-.7 0-1.3.6-1.3 1.3s.6 1.3 1.3 1.3h12.8v8.5h-8c-.7 0-1.3.4-1.6 1L21 53.5c-.3.6-.1 1.4.5 1.7s1.4.1 1.7-.5l2.6-5h17.8l2.6 5c.3.6 1.1.9 1.7.5.6-.3.9-1.1.5-1.7l-2.8-5.3c-.3-.6-1-1-1.6-1h-8v-8.5h12.8c.7 0 1.3-.6 1.3-1.3V9.7c0-.7-.6-1.3-1.3-1.3H20.6c-.7 0-1.3.6-1.3 1.3z"/></svg><svg id="teacher_white" viewBox="-5 -5 59 59" width="59" height="59" x="829" y="753" xmlns="http://www.w3.org/2000/svg"><style>.lst0{opacity:.3}.lst0,.lst1{fill:#fff}</style><circle class="lst0" cx="32.9" cy="18.2" r="15.6"/><path class="lst1" d="M3.9 11.8c0 2.6 2.2 4.8 4.8 4.8s4.8-2.2 4.8-4.8S11.3 7 8.7 7c-2.6-.1-4.8 2.1-4.8 4.8zm7.6 0c0 1.5-1.3 2.8-2.8 2.8s-2.8-1.3-2.8-2.8S7.2 9 8.7 9c1.5-.1 2.8 1.2 2.8 2.8zM1.5 29.6c.2 1.3.9 2.3 2 3l1.6 11.7c.2 1.2 1.1 2.1 2.3 2.1H10c1.2 0 2.2-.9 2.3-2.1l.8-7.1 1.6-11.9 1.8 1.4c1 .9 2.5.9 3.5.1l5.3-4.2c1.1-.9 1.4-2.5.7-3.8-.8-1.4-2.6-1.8-3.8-1 0 .1-.1.2-.2.2l-3.5 2.8-3.6-3c-.5-.4-1.1-.6-1.8-.6h-1.6c-.4 0-.7.2-1 .4l-1.6 2-1.6-2c-.2-.3-.6-.5-1-.5H4.9c-2.5 0-4.4 2-4.4 4.4v.5l1 7.6zm1.6-9.5c.5-.5 1.1-.8 1.8-.8h.9l1.8 2.3c.5.6 1.4.7 2 .2l.2-.2 1.8-2.3H13c.2 0 .3.1.5.2l4.2 3.5c.4.3.9.3 1.3 0l4.2-3.3c.2-.1.3-.2.5-.2s.6.2.6.4c.2.4.1.8-.2 1l-5.3 4.2c-.3.2-.7.2-1 0l-3.2-2.6c-.4-.3-1-.3-1.4.2-.2.1-.2.3-.3.4L11 36.9l-.8 7.2c0 .2-.2.2-.3.2H7.3c-.2 0-.3-.2-.3-.3L5.3 31.8c0-.4-.3-.7-.6-.8-.6-.2-1.1-.9-1.2-1.6l-1-7.5c-.1-.6.1-1.3.6-1.8z"/><path class="lst1" d="M15.9 8.2v7.4c0 .6.5 1 1 1s1-.5 1-1V9.3h20.5v20.1H17c-.6 0-1 .5-1 1 0 .6.5 1 1 1h10.3v6.8h-6.4c-.6 0-1 .3-1.3.8l-2.2 4.2c-.2.5-.1 1.1.4 1.4.5.2 1.1.1 1.4-.4l2.1-4h14.3l2.1 4c.2.5.9.7 1.4.4.5-.2.7-.9.4-1.4L37 39.1c-.2-.5-.8-.8-1.3-.8h-6.4v-6.8h10.3c.6 0 1-.5 1-1V8.2c0-.6-.5-1-1-1H17c-.6 0-1.1.5-1.1 1z"/></svg></svg>