<?xml version="1.0" encoding="utf-8"?>
<!-- Generator: Adobe Illustrator 21.1.0, SVG Export Plug-In . SVG Version: 6.00 Build 0)  -->
<svg version="1.1" id="Слой_1" xmlns="http://www.w3.org/2000/svg" xmlns:xlink="http://www.w3.org/1999/xlink" x="0px" y="0px"
	 viewBox="0 0 60 60" style="enable-background:new 0 0 60 60;" xml:space="preserve">
<style type="text/css">
	.st0{fill:none;}
	.st1{fill:#7AABC5;}
	.st2{fill:#666666;}
</style>
<g>
	<path class="st0" d="M19.3,20.7l0.1-7.3l-5.5-1.8v14.2c1-1.3,2.2-2.4,3.5-3.5c0.2-0.3,0.3-0.5,0.6-0.7
		C18.4,21.2,18.8,20.9,19.3,20.7z"/>
	<path class="st0" d="M30.2,14.1l12.3-4L30.1,7.4c-0.1,0-0.2,0-0.3,0l-12.4,2.7l12.3,4C29.9,14.2,30.1,14.2,30.2,14.1z"/>
	<path class="st1" d="M22,38.7v-2.5c-1.3-1.9-2.1-4-2.4-6.2c-1.7-1.4-2.7-3.5-2.7-5.7c0-0.7,0.2-1.4,0.6-1.9c-1.3,1-2.5,2.2-3.5,3.5
		v2.3c0,0.7-0.6,1.3-1.3,1.3c-0.3,0-0.6-0.1-0.9-0.3c-1.5,2.8-2.3,6.1-2.3,9.5c0,2.1,0.3,4.1,0.9,5.9c0.3-0.2,0.7-0.4,1.1-0.6
		L22,38.7z"/>
	<path class="st1" d="M40.5,29.9c-0.3,2.3-1.2,4.5-2.5,6.4v2.4l10.6,5.2c0.4,0.2,0.7,0.4,1.1,0.6c0.6-1.9,0.9-3.9,0.9-5.9
		c0-6.7-3.2-12.6-8.1-16.4c0.4,0.6,0.7,1.3,0.7,2.1C43.1,26.4,42.1,28.5,40.5,29.9z"/>
	<path class="st2" d="M49.7,44.5c-0.3-0.2-0.7-0.4-1.1-0.6L38,38.7v-2.4c1.4-1.9,2.2-4.1,2.5-6.4c1.6-1.4,2.6-3.5,2.6-5.6
		c0-0.8-0.2-1.5-0.7-2.1c-0.1-0.2-0.3-0.4-0.4-0.5c-0.4-0.4-0.8-0.7-1.3-0.9v-7.4l7.1-2.3c0.7-0.2,1-0.9,0.8-1.6
		c-0.1-0.4-0.5-0.8-0.9-0.9l-17-3.7c-0.5-0.1-0.9-0.1-1.4,0l-17,3.7c-0.7,0.1-1.1,0.8-1,1.5c0,0.1,0,0.1,0,0.2v17.9
		c0,0.4,0.2,0.7,0.4,1c0.2,0.2,0.5,0.3,0.9,0.3c0.7,0,1.3-0.6,1.3-1.3v-2.3V11.6l5.5,1.8l-0.1,7.3c-0.5,0.2-1,0.5-1.4,0.8
		c-0.2,0.2-0.4,0.5-0.6,0.7c-0.4,0.6-0.6,1.2-0.6,1.9c0,2.2,1,4.3,2.7,5.7c0.3,2.2,1.1,4.4,2.4,6.2v2.5l-10.6,5.2
		c-0.4,0.2-0.7,0.4-1.1,0.6C7.7,46.1,6,49,6,52.2v1.7c0,0.7,0.6,1.3,1.3,1.3h10.6h24.2h10.6c0.7,0,1.3-0.6,1.3-1.3v-1.7
		C54,49,52.3,46.1,49.7,44.5z M17.5,10.1l12.4-2.7c0.1,0,0.2,0,0.3,0l12.4,2.7l-12.3,4c-0.1,0-0.3,0-0.4,0L17.5,10.1z M38.1,14.2
		v3.6c-0.7,0.4-1.4,0.8-2.1,1.1c-3.9,1.7-8.2,1.7-12.1,0c-0.7-0.3-1.4-0.6-2-1.1v-3.6l7.1,2.3c0.7,0.2,1.4,0.2,2,0L38.1,14.2z
		 M21.5,28.2c-1.3-0.9-2.1-2.4-2.1-3.9c0-0.3,0.1-0.6,0.3-0.8c0.2-0.2,0.5-0.3,0.8-0.3c0.7,0,1.3-0.5,1.3-1.2l0,0v-1.1
		c2.5,1.3,5.3,1.9,8.1,2c2.8,0,5.6-0.7,8.1-2V22c0,0.7,0.6,1.3,1.3,1.3c0.3,0,0.6,0.1,0.8,0.3c0.2,0.2,0.3,0.5,0.3,0.8
		c0,1.5-0.7,3-2,3.9c-0.3,0.2-0.5,0.5-0.5,0.9c-0.2,2.1-1,4.1-2.2,5.8c-0.3,0.4-0.4,0.8-0.4,1.3v2.9c-2.3,3-6.7,3.6-9.7,1.2
		c-0.4-0.3-0.9-0.8-1.2-1.2v-3c0-0.5-0.2-0.9-0.4-1.3c-1.2-1.7-1.9-3.6-2.1-5.7C22,28.8,21.8,28.4,21.5,28.2z M51.4,52.6H45H15H8.6
		v-0.4c0-2.1,1-4,2.7-5.2c0.4-0.3,0.8-0.5,1.2-0.7h0.1L23,41.2c1.8,2,4.4,3.2,7.1,3.2H30c2.7,0,5.3-1.2,7.1-3.2l10.4,5.1h0.1
		c0.4,0.2,0.8,0.4,1.2,0.7c1.6,1.2,2.7,3.1,2.7,5.2L51.4,52.6z"/>
</g>
</svg>
