<?xml version="1.0" encoding="utf-8"?>
<!-- Generator: Adobe Illustrator 22.0.1, SVG Export Plug-In . SVG Version: 6.00 Build 0)  -->
<svg version="1.1" id="Слой_1" xmlns="http://www.w3.org/2000/svg" xmlns:xlink="http://www.w3.org/1999/xlink" x="0px" y="0px"
	 viewBox="0 0 49 49" style="enable-background:new 0 0 49 49;" xml:space="preserve">
<style type="text/css">
	.st0{fill:none;}
	.st1{opacity:0.3;fill:#FFFFFF;enable-background:new    ;}
	.st2{fill:#FFFFFF;}
</style>
<g>
	<path class="st0" d="M15.7,16.9l0.1-6l-4.5-1.4v11.7c0.8-1.1,1.8-1.9,2.9-2.9c0.2-0.3,0.3-0.4,0.5-0.6
		C14.9,17.3,15.3,17.1,15.7,16.9z"/>
	<path class="st0" d="M24.7,11.5l10-3.3L24.6,6c-0.1,0-0.2,0-0.3,0L14.2,8.2l10,3.3C24.4,11.6,24.6,11.6,24.7,11.5z"/>
	<path class="st1" d="M17.9,31.6v-2c-1.1-1.5-1.7-3.3-1.9-5.1c-1.4-1.2-2.2-2.9-2.2-4.6c0-0.6,0.2-1.2,0.5-1.5
		c-1.1,0.8-2,1.8-2.9,2.9v1.9c0,0.6-0.5,1.1-1.1,1.1c-0.3,0-0.5-0.1-0.8-0.3c-1.3,2.3-1.9,5-1.9,7.8c0,1.7,0.3,3.4,0.8,4.8
		c0.3-0.2,0.6-0.3,0.9-0.5L17.9,31.6z"/>
	<path class="st1" d="M33.1,24.4c-0.3,1.9-1,3.7-2,5.2v1.9l8.7,4.2c0.3,0.2,0.6,0.3,0.9,0.5c0.5-1.5,0.8-3.2,0.8-4.8
		c0-5.5-2.6-10.3-6.7-13.4c0.3,0.5,0.6,1.1,0.6,1.7C35.2,21.5,34.4,23.2,33.1,24.4z"/>
	<path class="st2" d="M40.6,36.4c-0.3-0.2-0.6-0.3-0.9-0.5l-8.7-4.2v-1.9c1.2-1.5,1.8-3.4,2-5.2c1.4-1.2,2.1-2.9,2.1-4.6
		c0-0.7-0.2-1.3-0.6-1.7c-0.1-0.2-0.3-0.3-0.3-0.4c-0.3-0.3-0.7-0.6-1.1-0.8v-6.1l5.8-1.9c0.6-0.2,0.8-0.8,0.7-1.4
		c-0.1-0.3-0.4-0.7-0.8-0.8L25.1,3.9c-0.4-0.1-0.8-0.1-1.2,0L10,6.9C9.4,7,9,7.6,9.1,8.2c0,0.1,0,0.1,0,0.2V23
		c0,0.3,0.2,0.6,0.3,0.8c0.2,0.2,0.4,0.3,0.8,0.3c0.6,0,1.1-0.5,1.1-1.1v-1.9V9.4l4.5,1.4l-0.1,6c-0.4,0.2-0.8,0.4-1.2,0.7
		c-0.2,0.2-0.3,0.4-0.5,0.6c-0.3,0.5-0.5,1-0.5,1.5c0,1.8,0.8,3.6,2.2,4.6c0.3,1.8,0.9,3.6,1.9,5.1v2L9,35.7
		c-0.3,0.2-0.6,0.3-0.9,0.5c-1.9,1.4-3.4,3.9-3.4,6.5V44c0,0.6,0.5,1.1,1.1,1.1h8.7h19.9h8.7c0.6,0,1.1-0.5,1.1-1.1v-1.4
		C44.2,40,42.8,37.7,40.6,36.4z M14.3,8.2L24.4,6c0.1,0,0.2,0,0.3,0l10.1,2.2l-10,3.3c-0.1,0-0.3,0-0.3,0L14.3,8.2z M31.2,11.6v3
		c-0.6,0.3-1.2,0.7-1.7,0.9c-3.2,1.4-6.8,1.4-9.9,0c-0.6-0.3-1.2-0.5-1.6-0.9v-3l5.8,1.9c0.6,0.2,1.2,0.2,1.6,0L31.2,11.6z M17.5,23
		c-1.1-0.8-1.7-1.9-1.7-3.2c0-0.3,0.1-0.5,0.3-0.7c0.2-0.2,0.4-0.3,0.7-0.3c0.6,0,1.1-0.4,1.1-1l0,0v-0.9c2,1.1,4.3,1.5,6.7,1.6
		c2.3,0,4.6-0.6,6.7-1.6v0.9c0,0.6,0.5,1.1,1.1,1.1c0.3,0,0.5,0.1,0.7,0.3c0.2,0.2,0.3,0.4,0.3,0.7c0,1.3-0.6,2.4-1.6,3.2
		c-0.3,0.2-0.4,0.4-0.4,0.8c-0.2,1.7-0.8,3.4-1.8,4.7C29,28.9,29,29.3,29,29.7v2.4c-1.9,2.4-5.5,3-7.9,1c-0.3-0.3-0.8-0.7-1-1v-2.4
		c0-0.4-0.2-0.8-0.3-1.1c-1-1.4-1.5-3-1.7-4.6C17.9,23.5,17.7,23.1,17.5,23z M42.1,43h-5.2H12.2H6.9v-0.3c0-1.7,0.8-3.3,2.2-4.2
		c0.3-0.3,0.7-0.4,1-0.6h0.1l8.5-4.2c1.4,1.6,3.6,2.6,5.8,2.6h-0.1c2.2,0,4.3-1,5.8-2.6l8.5,4.2h0.1c0.3,0.2,0.7,0.3,1,0.6
		c1.4,1,2.2,2.5,2.2,4.2L42.1,43z"/>
</g>
</svg>
