<?xml version="1.0" encoding="utf-8"?>
<!-- Generator: Adobe Illustrator 22.0.1, SVG Export Plug-In . SVG Version: 6.00 Build 0)  -->
<svg version="1.1" id="Слой_1" xmlns="http://www.w3.org/2000/svg" xmlns:xlink="http://www.w3.org/1999/xlink" x="0px" y="0px"
	 viewBox="0 0 49 49" style="enable-background:new 0 0 49 49;" xml:space="preserve">
<style type="text/css">
	.st0{fill:none;}
	.st1{opacity:0.3;fill:#FFFFFF;}
	.st2{fill:#FFFFFF;}
</style>
<g>
	<path class="st0" d="M7.7,17.7c-0.6,0.1-1,0.7-0.8,1.2l1.1,6C8,25.4,8.5,25.8,9,25.8c0.1,0,0.2,0,0.2,0l1.6-0.3l-1.4-8.1L7.7,17.7z
		"/>
	<path class="st1" d="M34.7,16.6c0.7,0.7,1.1,1.6,0.9,2.7l-1.2,6c-0.2,1.4-1.5,2.5-2.9,2.5c-0.2,0-0.4,0-0.5,0l-1.6-0.2
		c-1.4,2.8-4.4,7.9-9.2,7.9c-1.3,0-3.6-0.5-6-2.9c0.2,1.1,0.4,2.1,0.8,3.1l1.1-0.5h0.1c0,0,0,0,0.1,0l0,0h0.1h0.1h0.1h0.1h0.1h0.1
		h0.1c0,0,0,0,0.1,0c0,0,0,0,0.1,0.1l0.1,0.1l0.1,0.1c0,0,0,0,0.1,0.1c0,0,0.1,0,0.1,0.1s0,0.1,0,0.1l0,0v0.1c0,0,0,0,0,0.1
		c0.5,1.6,1.8,2.1,2.8,2.1c1.1,0,2.4-0.5,2.8-2.1v-0.1c0.2-0.5,0.8-0.7,1.2-0.5l7,2.8c0.5,0.2,0.7,0.8,0.5,1.2
		c-0.2,0.4-0.5,0.6-0.8,0.6c-0.1,0-0.2,0-0.4-0.1l-6.1-2.5c-0.8,1.6-2.5,2.5-4.3,2.5c-1.8,0-3.5-1-4.3-2.5l-0.2,0.1
		c2.8,4.8,7.7,8.1,13.6,8.1c8.3,0,15-6.7,15-15C44.1,24.2,40.2,18.8,34.7,16.6z"/>
	<g>
		<path class="st2" d="M31.3,37.9l-7-2.8c-0.5-0.2-1.1,0-1.2,0.5v0.1c-0.5,1.6-1.8,2.1-2.8,2.1s-2.4-0.5-2.8-2.1c0,0,0,0,0-0.1v-0.1
			l0,0v-0.1c0,0,0-0.1-0.1-0.1c0,0,0-0.1-0.1-0.1l-0.2-0.1l-0.1-0.1c0,0-0.1,0-0.1-0.1h-0.1h-0.1h-0.1h-0.1h-0.1h-0.1h-0.1h-0.1l0,0
			c0,0,0,0-0.1,0h-0.1l-1.1,0.5l-6,2.4c-0.5,0.2-0.7,0.8-0.5,1.2c0.2,0.4,0.5,0.6,0.9,0.6c0.2,0,0.2,0,0.4-0.1l5.8-2.4l0.2-0.1
			c0.8,1.6,2.5,2.5,4.3,2.5c1.8,0,3.5-1,4.3-2.5l6.1,2.5c0.2,0.1,0.2,0.1,0.4,0.1c0.4,0,0.7-0.2,0.8-0.6
			C32,38.7,31.9,38.2,31.3,37.9z"/>
		<path class="st2" d="M34.7,16.6c-0.4-0.3-0.8-0.6-1.3-0.8C33,8.9,27.3,3.6,20.4,3.6c-7,0-12.7,5.4-13,12.3
			c-1.5,0.4-2.5,1.8-2.2,3.4l1,6.1c0.2,1.4,1.5,2.5,2.9,2.5c0.2,0,0.4,0,0.5,0l2.5-0.5c0.5-0.1,0.8-0.5,0.8-1.1l-1.3-7.3
			c0.6-1.1,1.2-1.7,1.9-1.9c1.3-0.4,3.1,0.5,5.3,1.6c0.2,0.2,0.5,0.3,0.8,0.5c2.2,1.2,4.9,2.4,8,2.4c0.4,0,0.8,0,1.2-0.1L28,26.3
			l0,0c-2.9,6.4-6.3,7.1-7.7,7.1c-1.2,0-3.7-0.5-6.1-4.1c-0.2-0.2-0.2-0.4-0.4-0.6c-0.3-0.5-0.8-0.6-1.3-0.3
			c-0.5,0.3-0.6,0.8-0.3,1.3c0.7,1.2,1.4,2,2.1,2.8c2.4,2.5,4.7,2.9,6,2.9c4.8,0,7.9-5.1,9.2-7.9l1.6,0.2c0.2,0,0.4,0,0.5,0
			c1.5,0,2.7-1.1,2.9-2.5l1.1-6C35.8,18.3,35.4,17.3,34.7,16.6z M9.2,25.9c-0.1,0-0.2,0-0.2,0c-0.5,0-1-0.4-1.1-0.9l-1.1-6
			c-0.1-0.6,0.3-1.2,0.8-1.2l1.6-0.3l1.4,8.1L9.2,25.9z M27.1,19.4c-2.8,0.4-4.1-0.5-6-1.6c-0.5-0.3-1-0.6-1.6-0.9
			c-2.5-1.3-4.6-2.5-6.7-1.8c-0.7,0.2-1.2,0.6-1.8,1.2v-0.2c0-0.2-0.2-0.5-0.4-0.6c-0.2-0.2-0.5-0.2-0.8-0.2l-0.8,0.2
			C9.8,9.8,14.5,5.4,20.3,5.4s10.5,4.4,11.1,10.1l-0.5-0.1c-1.3-5.6-5.1-8.8-10.7-8.8c-4.8,0-8.4,2.5-10.1,7
			c-0.2,0.5,0.1,1.1,0.5,1.2c0.5,0.2,1.1-0.1,1.2-0.5c1.4-3.8,4.2-5.8,8.2-5.8c4.8,0.1,6.2,4.1,6.7,7.3
			C27.3,17.7,27.1,19.4,27.1,19.4z M33.7,19l-1.1,6c-0.1,0.5-0.5,0.9-1.1,0.9c-0.1,0-0.2,0-0.2,0L30,25.7l1.3-8.2l1.6,0.3
			C33.4,17.7,33.8,18.4,33.7,19z"/>
	</g>
</g>
</svg>
