<svg version="1.1" xmlns="http://www.w3.org/2000/svg" xmlns:xlink="http://www.w3.org/1999/xlink" viewBox="0 0 60 60" xml:space="preserve"><style type="text/css">.st0{fill:none;}.st1{fill:#7AABC5;}.st2{fill:#666666;}</style><g><path class="st0" d="M8.1,21.1C7.3,21.2,6.8,22,7,22.7l1.4,7.8c0.1,0.7,0.7,1.2,1.4,1.2c0.1,0,0.2,0,0.2,0l2.1-0.4l-1.8-10.6 L8.1,21.1z"/><path class="st1" d="M43.3,19.7c0.9,0.9,1.4,2.1,1.2,3.5L43,31c-0.3,1.8-1.9,3.2-3.8,3.2c-0.2,0-0.5,0-0.7,0l-2.1-0.3 c-1.8,3.7-5.7,10.3-12,10.3c-1.7,0-4.7-0.6-7.8-3.8c0.2,1.4,0.5,2.8,1,4.1l1.4-0.6h0.1c0,0,0,0,0.1,0l0,0h0.1h0.1h0.1h0.1h0.1h0.1 h0.1c0,0,0,0,0.1,0c0,0,0,0,0.1,0.1l0.1,0.1l0.1,0.1c0,0,0,0,0.1,0.1c0,0,0.1,0,0.1,0.1s0,0.1,0,0.1l0,0v0.1c0,0,0,0,0,0.1 c0.6,2.1,2.3,2.8,3.7,2.8c1.4,0,3.1-0.7,3.7-2.8v-0.1c0.2-0.6,1-0.9,1.6-0.7l9.1,3.7c0.6,0.2,0.9,1,0.7,1.6 c-0.2,0.5-0.7,0.8-1.1,0.8c-0.1,0-0.3,0-0.5-0.1l-7.9-3.2c-1.1,2.1-3.2,3.3-5.6,3.3s-4.5-1.3-5.6-3.3l-0.3,0.1 C21.9,53,28.4,57.3,36,57.3c10.8,0,19.5-8.7,19.5-19.5C55.5,29.6,50.4,22.6,43.3,19.7z"/><g><path class="st2" d="M38.9,47.5l-9.1-3.7c-0.6-0.2-1.4,0-1.6,0.7v0.1c-0.6,2.1-2.3,2.8-3.7,2.8c-1.4,0-3.1-0.7-3.7-2.8 c0,0,0,0,0-0.1v-0.1l0,0v-0.1c0,0,0-0.1-0.1-0.1c0,0,0-0.1-0.1-0.1L20.4,44l-0.1-0.1c0,0-0.1,0-0.1-0.1h-0.1H20h-0.1h-0.1h-0.1 h-0.1h-0.1h-0.1l0,0c0,0,0,0-0.1,0h-0.1l-1.4,0.6L10,47.5c-0.6,0.2-0.9,1-0.7,1.6c0.2,0.5,0.7,0.8,1.2,0.8c0.2,0,0.3,0,0.5-0.1 l7.6-3.1l0.3-0.1c1.1,2.1,3.2,3.3,5.6,3.3s4.5-1.3,5.6-3.3l7.9,3.2c0.2,0.1,0.3,0.1,0.5,0.1c0.5,0,0.9-0.3,1.1-0.8 C39.8,48.5,39.6,47.8,38.9,47.5z"/><path class="st2" d="M43.3,19.7c-0.5-0.4-1.1-0.8-1.7-1c-0.5-9-8-16-17-16c-9.1,0-16.5,7-17,16c-2,0.5-3.3,2.4-2.9,4.4L6,31 c0.3,1.8,1.9,3.2,3.8,3.2c0.2,0,0.5,0,0.7,0l3.3-0.6c0.7-0.1,1.1-0.7,1-1.4l-1.7-9.5c0.8-1.4,1.6-2.2,2.5-2.5 c1.7-0.5,4.1,0.7,6.9,2.1c0.3,0.2,0.7,0.4,1.1,0.6C26.5,24.4,30,26,34,26c0.5,0,1,0,1.5-0.1l-1,6.4l0,0c-3.8,8.4-8.2,9.3-10,9.3 c-1.6,0-4.8-0.7-7.9-5.4c-0.2-0.2-0.3-0.5-0.5-0.8c-0.4-0.6-1.1-0.8-1.7-0.4c-0.6,0.4-0.8,1.1-0.4,1.7c0.9,1.5,1.8,2.6,2.7,3.6 c3.1,3.2,6.1,3.8,7.8,3.8c6.3,0,10.3-6.6,12-10.3l2.1,0.3c0.2,0,0.5,0,0.7,0c1.9,0,3.5-1.4,3.8-3.2l1.4-7.8 C44.7,21.9,44.2,20.6,43.3,19.7z M10,31.8c-0.1,0-0.2,0-0.2,0c-0.7,0-1.3-0.5-1.4-1.2L7,22.8c-0.1-0.8,0.4-1.5,1.1-1.6l2.1-0.4 L12,31.4L10,31.8z M33.4,23.3c-3.7,0.5-5.4-0.6-7.8-2.1c-0.6-0.4-1.3-0.8-2.1-1.2c-3.2-1.7-6-3.2-8.7-2.3 c-0.9,0.3-1.6,0.8-2.3,1.5V19c0-0.3-0.2-0.6-0.5-0.8C11.7,18,11.3,18,11,18l-1,0.2c0.8-7.4,7-13.1,14.5-13.1S38.2,10.8,39,18.2 l-0.7-0.1c-1.7-7.3-6.7-11.5-13.9-11.5c-6.3,0-10.9,3.2-13.1,9.1c-0.2,0.7,0.1,1.4,0.7,1.6c0.7,0.2,1.4-0.1,1.6-0.7 c1.8-4.9,5.5-7.6,10.7-7.5c6.2,0.1,8.1,5.4,8.7,9.5C33.6,21.2,33.4,23.3,33.4,23.3z M42,22.8l-1.4,7.8c-0.1,0.7-0.7,1.2-1.4,1.2 c-0.1,0-0.2,0-0.2,0l-1.9-0.3l1.7-10.7l2.1,0.4C41.6,21.2,42.1,22,42,22.8z"/></g></g></svg>
