<?xml version="1.0" encoding="utf-8"?>
<!-- Generator: Adobe Illustrator 22.0.1, SVG Export Plug-In . SVG Version: 6.00 Build 0)  -->
<svg version="1.1" id="Слой_1" xmlns="http://www.w3.org/2000/svg" xmlns:xlink="http://www.w3.org/1999/xlink" x="0px" y="0px"
	 viewBox="0 0 68.7 49" style="enable-background:new 0 0 68.7 49;" xml:space="preserve">
<style type="text/css">
	.st0{fill:none;}
	.st1{opacity:0.3;fill:#FFFFFF;}
	.st2{fill:#D0E8F4;}
	.st3{fill:#FFFFFF;}
</style>
<g>
	<path class="st0" d="M1.7,47.3h13V32.7h-13V47.3z M11.5,34.8v8.6H4.8v-8.6H11.5z"/>
	<rect x="1.7" y="28.8" class="st0" width="13" height="2.2"/>
	<rect x="6.5" y="40" class="st0" width="3.4" height="1.8"/>
	<path class="st0" d="M24.4,27.2c0-0.7-0.6-1.4-1.4-1.4c-0.7,0-1.4,0.6-1.4,1.4l0,0H24.4L24.4,27.2z"/>
	<rect x="25.4" y="36.4" class="st0" width="4.5" height="10.9"/>
	<rect x="21.7" y="28.8" class="st0" width="2.7" height="2.5"/>
	<rect x="25.4" y="1.7" class="st0" width="4.5" height="2.2"/>
	<rect x="6.5" y="36.5" class="st0" width="3.4" height="1.8"/>
	<rect x="56.5" y="41.9" class="st0" width="4.6" height="1.2"/>
	<path class="st0" d="M56.5,40.2h4.6V30.1h-0.8c-0.8,2.4-2.1,4.6-3.8,6.4V40.2z"/>
	<path class="st1" d="M60.8,28.4c0.2-1.2,0.4-2.3,0.4-3.5c0-8.4-6.2-15.5-14.3-16.7v5.4v28c1.1-0.1,2.2-0.4,3.2-0.9l1.6-12.3H60.8z"
		/>
	<path class="st2" d="M44.2,7.9c-0.4,0-0.6,0-1,0h2C44.9,7.9,44.6,7.9,44.2,7.9z"/>
	<path class="st1" d="M56.5,36.5c1.7-1.8,3-4,3.8-6.4h-3.8V36.5z"/>
	<path class="st1" d="M53.2,30.1L52,40c1-0.5,2-1.2,3-1.9v-7.9L53.2,30.1L53.2,30.1z"/>
	<path class="st3" d="M16.4,13.5h-1.7v13.6h1.7C16.4,20.4,16.4,16,16.4,13.5z"/>
	<path class="st3" d="M45.2,13.5v28.2v5.5h-7.3c0,0.4,0,1.6,0,1.6H23.7v-1.6h-7.4V49h30.5v-7.4v-28H45.2z"/>
	<path class="st3" d="M26.1,27.2c0-1.7-1.4-3-3-3s-3,1.4-3,3V33h6.1C26.1,33,26.1,27.2,26.1,27.2z M25.2,28.8h-0.9v2.5h-2.7l0,0l0,0
		v-2.5h-0.9v-1.7h0.9l0,0c0-0.7,0.6-1.4,1.4-1.4c0.7,0,1.4,0.6,1.4,1.4l0,0h0.8V28.8z"/>
	<path class="st3" d="M30.8,24.1c-1.7,0-3,1.4-3,3v1.7V33h1.6h4.5v-5.8C33.8,25.4,32.4,24.1,30.8,24.1z M33,28.8h-0.9v2.5h-2.7v-2.5
		h-0.9v-1.7h0.9l0,0c0-0.7,0.6-1.4,1.4-1.4c0.8,0,1.4,0.6,1.4,1.4l0,0h0.9L33,28.8L33,28.8z"/>
	<path class="st3" d="M41.6,27.2c0-1.7-1.4-3-3-3s-3,1.4-3,3V33h6.1C41.6,33,41.6,27.2,41.6,27.2z M40.7,28.8h-0.9v2.5h-2.7l0,0l0,0
		v-2.5h-0.9v-1.7h0.9l0,0c0-0.7,0.6-1.4,1.4-1.4s1.4,0.6,1.4,1.4l0,0h0.9L40.7,28.8L40.7,28.8z"/>
	<path class="st3" d="M31.9,36.4c-0.1-0.1-0.1-0.1-0.2-0.2v0.2H31.9z"/>
	<path class="st3" d="M31.6,48.1H30v-0.8h-6.2v1.6h14.1c0,0,0-1.3,0-1.6h-6.3C31.6,47.3,31.6,48.1,31.6,48.1z"/>
	<rect x="30" y="36.4" class="st3" width="1.7" height="10.9"/>
	<rect x="30" y="47.3" class="st3" width="1.7" height="0.1"/>
	<path class="st3" d="M30.5,34.7h-6.7v12.6H30v-0.1h-4.5V36.4H30h1.7v-0.2c0.1,0.1,0.1,0.1,0.2,0.2h4.4v3.4v7.5h-4.5v0.1H38
		c0-1.4,0-3.5,0-6.8c0-2.8,0-5.8,0-5.8S30.5,34.7,30.5,34.7z"/>
	<rect x="30" y="47.3" class="st3" width="1.7" height="0.8"/>
	<rect x="30" y="5.5" class="st3" width="1.7" height="2.5"/>
	<polygon class="st3" points="25.4,3.8 25.4,1.7 30,1.7 30,0.9 31.6,0.9 31.6,0 23.7,0 23.7,5.5 30,5.5 30,3.8 	"/>
	<polygon class="st3" points="31.6,0.9 30,0.9 30,1.7 30,3.8 30,5.5 31.6,5.5 	"/>
	<path class="st3" d="M30.8,15.3c-0.2,0-0.4,0-0.6,0.1c-1.7,0.3-2.9,1.7-2.9,3.4c0,0.6,0.2,1.2,0.5,1.7c0.6,1,1.7,1.7,2.9,1.7
		c1.9,0,3.4-1.5,3.4-3.4C34.1,16.9,32.6,15.3,30.8,15.3z M30.8,20.4c-0.9,0-1.7-0.8-1.7-1.7s0.8-1.7,1.7-1.7c0.9,0,1.7,0.8,1.7,1.7
		C32.5,19.6,31.8,20.4,30.8,20.4z"/>
	<path class="st3" d="M45.3,7.9h-2H31.6V8v0.9H30V8V7.9H14.7V8v5.5h1.7h15.3h13.5h1.7V8.1V7.9v0H45.3z M45.2,11.9H33.4h-17
		c0-0.2,0-2.2,0-2.2h20.3h8.5V11.9z"/>
	<polygon class="st3" points="30,7.9 30,8 30,8.9 31.6,8.9 31.6,8 31.6,7.9 	"/>
	<polygon class="st3" points="1.7,47.3 1.7,32.7 0,32.7 0,49 14.7,49 14.7,47.3 	"/>
	<path class="st3" d="M16.4,32.7h-1.7v14.6V49h1.7v-1.7C16.4,47.3,16.4,39.6,16.4,32.7z"/>
	<path class="st3" d="M11.5,43.5v-8.6H4.8v8.6H11.5z M5.7,38.3h0.8v-1.8h3.4v1.8h0.9v1.7H9.9v1.9H6.5V40H5.7V38.3z"/>
	<rect x="6.5" y="38.3" class="st3" width="3.4" height="1.7"/>
	<rect x="9.9" y="38.3" class="st3" width="0.9" height="1.7"/>
	<rect x="5.7" y="38.3" class="st3" width="0.9" height="1.7"/>
	<rect x="1.7" y="31.1" class="st3" width="13" height="1.7"/>
	<polygon class="st3" points="1.7,31.1 1.7,28.8 14.7,28.8 14.7,27.2 0,27.2 0,32.7 1.7,32.7 	"/>
	<path class="st3" d="M14.7,31.1v1.7h1.7c0-2.7,0-2.8,0-5.5h-1.7v1.7V31.1z"/>
	<polygon class="st3" points="66,28.4 60.8,28.4 51.7,28.4 50.1,40.8 49,49 50.8,49 52,39.9 53.2,30.1 54.8,30.1 54.8,29.3 
		56.5,29.3 56.5,30.1 60.3,30.1 61.2,30.1 61.2,29.3 62.8,29.3 62.8,30.1 64.5,30.1 66.9,49 68.7,49 	"/>
	<path class="st3" d="M61.2,40.2h-4.6v1.6h-1.7v3h8c0,0,0-1.7,0-3h-1.7L61.2,40.2L61.2,40.2z M61.2,43.1h-4.6v-1.2h4.6V43.1z"/>
	<path class="st3" d="M56.5,36.5C56,37,55.4,37.5,54.8,38v2.2h1.7V36.5z"/>
	<path class="st3" d="M56.5,36.5V30h-1.7V38C55.4,37.5,56,37,56.5,36.5z"/>
	<rect x="54.8" y="29.3" class="st3" width="1.7" height="0.9"/>
	<rect x="54.8" y="40.2" class="st3" width="1.7" height="1.6"/>
	<path class="st3" d="M61.2,40.2h1.7c0,0,0,0.7,0,1.6l0,0V30.1h-1.7V40.2z"/>
	<rect x="61.2" y="29.3" class="st3" width="1.7" height="0.9"/>
	<path class="st3" d="M61.2,40.2v1.6h1.7c0-0.9,0-1.6,0-1.6H61.2z"/>
	<rect x="21.7" y="27.2" class="st3" width="2.7" height="1.7"/>
	<rect x="20.8" y="27.2" class="st3" width="0.9" height="1.7"/>
	<rect x="24.4" y="27.2" class="st3" width="0.9" height="1.7"/>
	<rect x="29.5" y="27.2" class="st3" width="2.7" height="1.7"/>
	<rect x="32.1" y="27.2" class="st3" width="0.9" height="1.7"/>
	<rect x="28.6" y="27.2" class="st3" width="0.9" height="1.7"/>
	<rect x="37.2" y="27.2" class="st3" width="2.7" height="1.7"/>
	<rect x="39.9" y="27.2" class="st3" width="0.9" height="1.7"/>
	<rect x="36.4" y="27.2" class="st3" width="0.9" height="1.7"/>
</g>
</svg>
