<?xml version="1.0" encoding="utf-8"?>
<!-- Generator: Adobe Illustrator 21.1.0, SVG Export Plug-In . SVG Version: 6.00 Build 0)  -->
<svg version="1.1" id="Слой_1" xmlns="http://www.w3.org/2000/svg" xmlns:xlink="http://www.w3.org/1999/xlink" x="0px" y="0px"
	 viewBox="0 0 95.3 68" style="enable-background:new 0 0 95.3 68;" xml:space="preserve">
<style type="text/css">
	.st0{fill:none;}
	.st1{fill:#7AABC5;}
	.st2{fill:#D0E8F4;}
	.st3{fill:#666666;}
</style>
<g>
	<path class="st0" d="M2.3,65.7h18.1V45.4H2.3V65.7z M16,48.3v12H6.7v-12H16z"/>
	<rect x="2.3" y="40" class="st0" width="18.1" height="3.1"/>
	<rect x="9" y="55.5" class="st0" width="4.7" height="2.5"/>
	<path class="st0" d="M33.8,37.7c0-1-0.8-1.9-1.9-1.9c-1,0-1.9,0.8-1.9,1.9l0,0H33.8L33.8,37.7z"/>
	<rect x="35.2" y="50.5" class="st0" width="6.3" height="15.1"/>
	<rect x="30.1" y="40" class="st0" width="3.7" height="3.5"/>
	<rect x="35.2" y="2.3" class="st0" width="6.3" height="3"/>
	<rect x="9" y="50.6" class="st0" width="4.7" height="2.5"/>
	<rect x="78.4" y="58.1" class="st0" width="6.4" height="1.7"/>
	<path class="st0" d="M78.4,55.8h6.4v-14h-1.1c-1.1,3.4-2.9,6.4-5.3,8.9V55.8z"/>
	<path class="st1" d="M84.4,39.4c0.3-1.6,0.5-3.2,0.5-4.9c0-11.7-8.6-21.5-19.8-23.2v7.5v38.9c1.5-0.2,3-0.6,4.5-1.2l2.2-17.1H84.4z
		"/>
	<path class="st2" d="M61.4,11c-0.5,0-0.9,0-1.4,0h2.8C62.3,11,61.9,11,61.4,11z"/>
	<path class="st1" d="M78.4,50.6c2.4-2.5,4.2-5.5,5.3-8.9h-5.3V50.6z"/>
	<path class="st1" d="M73.8,41.8l-1.7,13.7c1.4-0.7,2.8-1.6,4.1-2.6v-11h-2.4V41.8z"/>
	<path class="st3" d="M22.7,18.8h-2.3v18.9h2.3C22.7,28.3,22.7,22.2,22.7,18.8z"/>
	<path class="st3" d="M62.7,18.8V58v7.7H52.5c0,0.5,0,2.2,0,2.2H32.9v-2.2H22.7V68H65V57.7V18.8H62.7z"/>
	<path class="st3" d="M36.2,37.7c0-2.3-1.9-4.2-4.2-4.2s-4.2,1.9-4.2,4.2v8.1h8.4C36.2,45.8,36.2,37.7,36.2,37.7z M35,40h-1.2v3.5
		h-3.7l0,0l0,0V40h-1.2v-2.3h1.2l0,0c0-1,0.8-1.9,1.9-1.9c1,0,1.9,0.8,1.9,1.9l0,0H35V40z"/>
	<path class="st3" d="M42.7,33.5c-2.3,0-4.2,1.9-4.2,4.2V40v5.8h2.2h6.2v-8.1C46.9,35.3,45,33.5,42.7,33.5z M45.8,40h-1.2v3.5h-3.7
		V40h-1.2v-2.3h1.2l0,0c0-1,0.8-1.9,1.9-1.9s1.9,0.8,1.9,1.9l0,0h1.2V40H45.8z"/>
	<path class="st3" d="M57.7,37.7c0-2.3-1.9-4.2-4.2-4.2s-4.2,1.9-4.2,4.2v8.1h8.4C57.7,45.8,57.7,37.7,57.7,37.7z M56.5,40h-1.2v3.5
		h-3.7l0,0l0,0V40h-1.2v-2.3h1.2l0,0c0-1,0.8-1.9,1.9-1.9s1.9,0.8,1.9,1.9l0,0h1.2V40H56.5z"/>
	<path d="M44.2,50.5c-0.1-0.1-0.2-0.2-0.3-0.3v0.3H44.2z"/>
	<path class="st3" d="M43.9,66.8h-2.3v-1.1H33v2.2h19.6c0,0,0-1.8,0-2.2h-8.7C43.9,65.7,43.9,66.8,43.9,66.8z"/>
	<rect x="41.6" y="50.5" class="st3" width="2.3" height="15.1"/>
	<rect x="41.6" y="65.6" width="2.3" height="0.1"/>
	<path class="st3" d="M42.3,48.2H33v17.5h8.6v-0.1h-6.3V50.5h6.3h2.3v-0.3c0.1,0.1,0.2,0.2,0.3,0.3h6.1v4.7v10.4H44v0.1h8.7
		c0-1.9,0-4.8,0-9.4c0-3.9,0-8.1,0-8.1S42.3,48.2,42.3,48.2z"/>
	<rect x="41.6" y="65.7" class="st3" width="2.3" height="1.1"/>
	<rect x="41.6" y="7.6" class="st3" width="2.3" height="3.4"/>
	<polygon class="st3" points="35.2,5.3 35.2,2.3 41.6,2.3 41.6,1.2 43.9,1.2 43.9,0 32.9,0 32.9,7.6 41.6,7.6 41.6,5.3 	"/>
	<polygon class="st3" points="43.9,1.2 41.6,1.2 41.6,2.3 41.6,5.3 41.6,7.6 43.9,7.6 	"/>
	<path class="st3" d="M42.7,21.2c-0.3,0-0.5,0-0.8,0.1c-2.3,0.4-4,2.3-4,4.7c0,0.9,0.3,1.7,0.7,2.4c0.8,1.4,2.3,2.3,4,2.3
		c2.6,0,4.7-2.1,4.7-4.7S45.3,21.2,42.7,21.2z M42.7,28.3c-1.3,0-2.4-1.1-2.4-2.4s1.1-2.4,2.4-2.4s2.4,1.1,2.4,2.4
		C45.1,27.2,44.1,28.3,42.7,28.3z"/>
	<path class="st3" d="M62.8,11H60H43.9v0.1v1.2h-2.3v-1.2V11H20.4v0.1v7.6h2.3h21.2h18.8H65v-7.5V11v0H62.8z M62.7,16.5H46.3H22.7
		c0-0.3,0-3,0-3h28.2h11.8V16.5z"/>
	<polygon class="st3" points="41.6,11 41.6,11.1 41.6,12.3 43.9,12.3 43.9,11.1 43.9,11 	"/>
	<polygon class="st3" points="2.3,65.7 2.3,45.4 0,45.4 0,68 20.4,68 20.4,65.7 	"/>
	<path class="st3" d="M22.7,45.4h-2.3v20.3V68h2.3v-2.3C22.7,65.7,22.7,55,22.7,45.4z"/>
	<path class="st3" d="M16,60.3v-12H6.7v12H16z M7.9,53.1H9v-2.5h4.7v2.5h1.2v2.3h-1.2V58H9v-2.5H7.9V53.1z"/>
	<rect x="9" y="53.1" class="st3" width="4.7" height="2.3"/>
	<rect x="13.7" y="53.1" class="st3" width="1.2" height="2.3"/>
	<rect x="7.9" y="53.1" class="st3" width="1.2" height="2.3"/>
	<rect x="2.3" y="43.1" class="st3" width="18.1" height="2.3"/>
	<polygon class="st3" points="2.3,43.1 2.3,40 20.4,40 20.4,37.7 0,37.7 0,45.4 2.3,45.4 	"/>
	<path class="st3" d="M20.4,43.1v2.3h2.3c0-3.7,0-3.9,0-7.7h-2.3V40V43.1z"/>
	<polygon class="st3" points="91.6,39.4 84.4,39.4 71.7,39.4 69.5,56.6 68,68 70.5,68 72.1,55.4 73.8,41.8 76.1,41.8 76.1,40.6 
		78.4,40.6 78.4,41.8 83.7,41.8 84.9,41.8 84.9,40.6 87.2,40.6 87.2,41.8 89.5,41.8 92.9,68 95.3,68 	"/>
	<path class="st3" d="M84.9,55.8h-6.4V58h-2.3v4.1h11.1c0,0,0-2.3,0-4.1H85L84.9,55.8L84.9,55.8z M84.9,59.8h-6.4v-1.7h6.4V59.8z"/>
	<path class="st3" d="M78.4,50.6c-0.7,0.8-1.5,1.5-2.3,2.2v3h2.3V50.6z"/>
	<path class="st3" d="M78.4,50.6v-8.9h-2.3v11C76.9,52.1,77.7,51.4,78.4,50.6z"/>
	<rect x="76.1" y="40.6" class="st3" width="2.3" height="1.2"/>
	<rect x="76.1" y="55.8" class="st3" width="2.3" height="2.2"/>
	<path class="st3" d="M84.9,55.8h2.3c0,0,0,1,0,2.2l0,0V41.8h-2.3V55.8z"/>
	<rect x="84.9" y="40.6" class="st3" width="2.3" height="1.2"/>
	<path class="st3" d="M84.9,55.8V58h2.3c0-1.2,0-2.2,0-2.2H84.9z"/>
	<rect x="30.1" y="37.7" class="st3" width="3.7" height="2.3"/>
	<rect x="28.9" y="37.7" class="st3" width="1.2" height="2.3"/>
	<rect x="33.8" y="37.7" class="st3" width="1.2" height="2.3"/>
	<rect x="40.9" y="37.7" class="st3" width="3.7" height="2.3"/>
	<rect x="44.6" y="37.7" class="st3" width="1.2" height="2.3"/>
	<rect x="39.7" y="37.7" class="st3" width="1.2" height="2.3"/>
	<rect x="51.6" y="37.7" class="st3" width="3.7" height="2.3"/>
	<rect x="55.4" y="37.7" class="st3" width="1.2" height="2.3"/>
	<rect x="50.5" y="37.7" class="st3" width="1.2" height="2.3"/>
</g>
</svg>
