<?xml version="1.0" encoding="utf-8"?>
<!-- Generator: Adobe Illustrator 22.0.1, SVG Export Plug-In . SVG Version: 6.00 Build 0)  -->
<svg version="1.1" id="Слой_1" xmlns="http://www.w3.org/2000/svg" xmlns:xlink="http://www.w3.org/1999/xlink" x="0px" y="0px"
	 viewBox="0 0 49 49" style="enable-background:new 0 0 49 49;" xml:space="preserve">
<style type="text/css">
	.st0{opacity:0.3;fill:#FFFFFF;}
	.st1{fill:#FFFFFF;}
</style>
<g>
	<circle class="st0" cx="32.9" cy="18.2" r="15.6"/>
	<path class="st1" d="M3.9,11.8c0,2.6,2.2,4.8,4.8,4.8s4.8-2.2,4.8-4.8s-2.2-4.8-4.8-4.8l0,0C6.1,6.9,3.9,9.1,3.9,11.8z M11.5,11.8
		c0,1.5-1.3,2.8-2.8,2.8s-2.8-1.3-2.8-2.8s1.3-2.8,2.8-2.8l0,0C10.2,8.9,11.5,10.2,11.5,11.8z"/>
	<path class="st1" d="M1.5,29.6c0.2,1.3,0.9,2.3,2,3l1.6,11.7c0.2,1.2,1.1,2.1,2.3,2.1h2.6c1.2,0,2.2-0.9,2.3-2.1l0.8-7.1l1.6-11.9
		l1.8,1.4c1,0.9,2.5,0.9,3.5,0.1l5.3-4.2c1.1-0.9,1.4-2.5,0.7-3.8c-0.8-1.4-2.6-1.8-3.8-1C22.2,17.9,22.1,18,22,18l-3.5,2.8l-3.6-3
		c-0.5-0.4-1.1-0.6-1.8-0.6h-1.6c-0.4,0-0.7,0.2-1,0.4l-1.6,2l-1.6-2c-0.2-0.3-0.6-0.5-1-0.5H4.9c-2.5,0-4.4,2-4.4,4.4
		c0,0.2,0,0.3,0,0.5L1.5,29.6z M3.1,20.1c0.5-0.5,1.1-0.8,1.8-0.8h0.9l1.8,2.3c0.5,0.6,1.4,0.7,2,0.2c0.1-0.1,0.2-0.2,0.2-0.2
		l1.8-2.3H13c0.2,0,0.3,0.1,0.5,0.2l4.2,3.5c0.4,0.3,0.9,0.3,1.3,0l4.2-3.3c0.2-0.1,0.3-0.2,0.5-0.2c0.2,0,0.6,0.2,0.6,0.4
		c0.2,0.4,0.1,0.8-0.2,1l-5.3,4.2c-0.3,0.2-0.7,0.2-1,0l-3.2-2.6c-0.4-0.3-1-0.3-1.4,0.2C13,22.8,13,23,12.9,23.1L11,36.9l-0.8,7.2
		c0,0.2-0.2,0.2-0.3,0.2H7.3c-0.2,0-0.3-0.2-0.3-0.3L5.3,31.8C5.3,31.4,5,31.1,4.7,31c-0.6-0.2-1.1-0.9-1.2-1.6l-1-7.5
		C2.4,21.3,2.6,20.6,3.1,20.1L3.1,20.1z"/>
	<path class="st1" d="M15.9,8.2v7.4c0,0.6,0.5,1,1,1s1-0.5,1-1V9.3h20.5v20.1H17c-0.6,0-1,0.5-1,1c0,0.6,0.5,1,1,1h10.3v6.8h-6.4
		c-0.6,0-1,0.3-1.3,0.8l-2.2,4.2c-0.2,0.5-0.1,1.1,0.4,1.4c0.5,0.2,1.1,0.1,1.4-0.4l0,0l2.1-4h14.3l2.1,4c0.2,0.5,0.9,0.7,1.4,0.4
		c0.5-0.2,0.7-0.9,0.4-1.4l0,0L37,39.1c-0.2-0.5-0.8-0.8-1.3-0.8h-6.4v-6.8h10.3c0.6,0,1-0.5,1-1V8.2c0-0.6-0.5-1-1-1H17
		C16.4,7.2,15.9,7.7,15.9,8.2z"/>
</g>
</svg>
